<svg width="19" height="19" viewBox="0 0 19 19" fill="none" xmlns="http://www.w3.org/2000/svg">
<path d="M19 3V5H16V8H14V5H11V3H14V0H16V3H19ZM10.5 10C10.898 9.99987 11.2796 9.84165 11.5609 9.56016C11.8422 9.27867 12.0001 8.89696 12 8.499C11.9999 8.10104 11.8417 7.71944 11.5602 7.43813C11.2787 7.15683 10.897 6.99887 10.499 6.999C10.302 6.99907 10.1068 7.03794 9.92482 7.11341C9.7428 7.18888 9.57742 7.29946 9.43813 7.43884C9.29884 7.57822 9.18837 7.74367 9.11303 7.92575C9.03768 8.10782 8.99893 8.30295 8.999 8.5C8.99907 8.69705 9.03794 8.89215 9.11341 9.07418C9.18888 9.2562 9.29946 9.42158 9.43884 9.56087C9.57822 9.70016 9.74367 9.81063 9.92575 9.88597C10.1078 9.96132 10.303 10.0001 10.5 10ZM14 13.234L13.487 12.664C13.2994 12.4552 13.07 12.2881 12.8136 12.1738C12.5573 12.0595 12.2797 12.0004 11.999 12.0004C11.7183 12.0004 11.4407 12.0595 11.1844 12.1738C10.928 12.2881 10.6986 12.4552 10.511 12.664L9.855 13.395L5 8L2 11.333V5H9V3H2C1.46957 3 0.960859 3.21071 0.585786 3.58579C0.210714 3.96086 0 4.46957 0 5V17C0 17.5304 0.210714 18.0391 0.585786 18.4142C0.960859 18.7893 1.46957 19 2 19H14C14.5304 19 15.0391 18.7893 15.4142 18.4142C15.7893 18.0391 16 17.5304 16 17V10H14V13.234Z" fill="white"/>
</svg>
