<svg width="86" height="72" viewBox="0 0 86 72" fill="none" xmlns="http://www.w3.org/2000/svg">
<path d="M82.215 42.71C83.35 40.555 84 38.105 84 35.5C84 28.879 79.841 23.243 73.999 21.022C73.999 21.015 74 21.008 74 21C74 9.402 64.598 0 53 0C43.216 0 35.019 6.701 32.687 15.757C31.211 15.272 29.638 15 28 15C20.308 15 13.977 20.793 13.11 28.252C7.906 29.353 4 33.969 4 39.5C4 45.851 9.149 51 15.5 51C15.677 51 15.852 50.988 16.026 50.978C16.022 51.153 16 51.324 16 51.5C16 62.822 25.178 72 36.5 72C42.937 72 48.675 69.028 52.434 64.386C54.612 66.611 57.64 68 61 68C65.65 68 69.674 65.35 71.666 61.482C72.718 61.817 73.837 62 75 62C81.075 62 86 57.075 86 51C86 47.689 84.53 44.727 82.215 42.71Z" fill="#C7EDE6"/>
<path d="M74.875 46.5C74.875 46.5 78.515 46.5 81 46.5C83.485 46.5 85.5 44.485 85.5 42C85.5 39.667 83.718 37.771 81.445 37.545C81.467 37.364 81.5 37.187 81.5 37C81.5 34.515 79.485 32.5 77 32.5C75.562 32.5 74.297 33.186 73.473 34.236C73.333 31.6 71.171 29.5 68.5 29.5C65.739 29.5 63.5 31.739 63.5 34.5C63.5 34.946 63.577 35.37 63.687 35.782C63.045 35.005 62.086 34.5 61 34.5C59.219 34.5 57.766 35.835 57.545 37.555C57.364 37.533 57.187 37.5 57 37.5C54.515 37.5 52.5 39.515 52.5 42C52.5 44.485 54.515 46.5 57 46.5C59.485 46.5 66.5 46.5 66.5 46.5H71.875V47H74.875V46.5Z" fill="#FDFCEF"/>
<path d="M68.5 29C65.467 29 63 31.467 63 34.5C63 34.516 63 34.531 63 34.547C62.398 34.192 61.71 34 61 34C59.169 34 57.589 35.261 57.142 37.005C57.095 37.002 57.048 37 57 37C54.243 37 52 39.243 52 42C52 44.757 54.243 47 57 47H71.875C72.151 47 72.375 46.776 72.375 46.5C72.375 46.224 72.151 46 71.875 46H57C54.794 46 53 44.206 53 42C53 39.794 54.794 38 57 38C57.117 38 57.23 38.017 57.343 38.032L57.484 38.051C57.505 38.054 57.525 38.055 57.546 38.055C57.792 38.055 58.008 37.87 58.041 37.618C58.232 36.125 59.504 35 61 35C61.885 35 62.723 35.401 63.301 36.1C63.399 36.218 63.542 36.282 63.687 36.282C63.765 36.282 63.843 36.264 63.915 36.226C64.124 36.119 64.229 35.88 64.169 35.653C64.054 35.218 64 34.852 64 34.5C64 32.019 66.019 30 68.5 30C70.881 30 72.847 31.872 72.974 34.263C72.985 34.471 73.124 34.65 73.323 34.713C73.373 34.729 73.424 34.737 73.475 34.737C73.625 34.737 73.771 34.668 73.867 34.545C74.638 33.563 75.779 33 77 33C79.206 33 81 34.794 81 37C81 37.117 80.983 37.23 80.968 37.343L80.949 37.484C80.933 37.618 80.971 37.752 81.055 37.857C81.139 37.962 81.262 38.029 81.395 38.042C83.451 38.247 85 39.949 85 42C85 44.206 83.206 46 81 46H74.875C74.599 46 74.375 46.224 74.375 46.5C74.375 46.776 74.599 47 74.875 47H81C83.757 47 86 44.757 86 42C86 39.603 84.311 37.587 81.997 37.123C81.999 37.082 82 37.041 82 37C82 34.243 79.757 32 77 32C75.824 32 74.707 32.416 73.817 33.164C73.219 30.76 71.055 29 68.5 29Z" fill="#472B29"/>
<path d="M67 36C65.597 36 64.391 36.999 64.087 38.341C63.72 38.119 63.301 38 62.875 38C61.673 38 60.677 38.897 60.522 40.068C60.319 40.022 60.126 40 59.938 40C58.409 40 57.127 41.2 57.02 42.732C57.01 42.87 57.114 42.99 57.251 43C57.257 43 57.263 43 57.269 43C57.399 43 57.509 42.899 57.518 42.768C57.607 41.497 58.669 40.5 59.937 40.5C60.166 40.5 60.407 40.542 60.675 40.627C60.697 40.634 60.72 40.637 60.742 40.637C60.797 40.637 60.852 40.617 60.898 40.583C60.962 40.537 61 40.455 61 40.375C61 39.341 61.841 38.5 62.875 38.5C63.322 38.5 63.76 38.668 64.106 38.973C64.153 39.014 64.212 39.036 64.271 39.036C64.303 39.036 64.334 39.03 64.364 39.017C64.452 38.982 64.512 38.9 64.519 38.805C64.623 37.512 65.712 36.5 67 36.5C67.208 36.5 67.425 36.534 67.682 36.607C67.705 36.614 67.729 36.617 67.752 36.617C67.861 36.617 67.959 36.544 67.991 36.435C68.029 36.302 67.952 36.164 67.819 36.126C67.517 36.04 67.256 36 67 36ZM80.883 37.5C79.557 37.5 78.375 38.397 78.009 39.682C77.971 39.815 78.048 39.953 78.181 39.991C78.205 39.997 78.228 40 78.25 40C78.359 40 78.459 39.928 78.49 39.818C78.795 38.748 79.779 38 80.883 38C81 38 81.113 38.014 81.225 38.029C81.237 38.031 81.248 38.032 81.26 38.032C81.381 38.032 81.489 37.94 81.506 37.815C81.525 37.678 81.429 37.552 81.292 37.534C81.158 37.516 81.022 37.5 80.883 37.5Z" fill="#472B29"/>
<path d="M10.405 37H0.5C0.224 37 0 36.776 0 36.5C0 36.224 0.224 36 0.5 36H10.405C10.681 36 10.905 36.224 10.905 36.5C10.905 36.776 10.682 37 10.405 37ZM13.5 37H12.5C12.224 37 12 36.776 12 36.5C12 36.224 12.224 36 12.5 36H13.5C13.776 36 14 36.224 14 36.5C14 36.776 13.777 37 13.5 37ZM18.491 39H9.5C9.224 39 9 38.776 9 38.5C9 38.224 9.224 38 9.5 38H18.491C18.767 38 18.991 38.224 18.991 38.5C18.991 38.776 18.767 39 18.491 39ZM7.5 39H6.5C6.224 39 6 38.776 6 38.5C6 38.224 6.224 38 6.5 38H7.5C7.776 38 8 38.224 8 38.5C8 38.776 7.777 39 7.5 39ZM4.5 39H2.5C2.224 39 2 38.776 2 38.5C2 38.224 2.224 38 2.5 38H4.5C4.776 38 5 38.224 5 38.5C5 38.776 4.777 39 4.5 39ZM10.5 41H8.5C8.224 41 8 40.776 8 40.5C8 40.224 8.224 40 8.5 40H10.5C10.776 40 11 40.224 11 40.5C11 40.776 10.776 41 10.5 41ZM13.5 32C13.323 32 12.677 32 12.5 32C12.224 32 12 32.224 12 32.5C12 32.776 12.224 33 12.5 33C12.677 33 13.323 33 13.5 33C13.776 33 14 32.776 14 32.5C14 32.224 13.776 32 13.5 32ZM13.5 34C13.323 34 8.677 34 8.5 34C8.224 34 8 34.224 8 34.5C8 34.776 8.224 35 8.5 35C8.677 35 13.323 35 13.5 35C13.776 35 14 34.776 14 34.5C14 34.224 13.776 34 13.5 34ZM18.5 36C18.323 36 15.677 36 15.5 36C15.224 36 15 36.224 15 36.5C15 36.776 15.224 37 15.5 37C15.677 37 18.323 37 18.5 37C18.776 37 19 36.776 19 36.5C19 36.224 18.776 36 18.5 36Z" fill="white"/>
<path d="M67.5 10H57.5C57.224 10 57 9.776 57 9.5C57 9.224 57.224 9 57.5 9H67.5C67.776 9 68 9.224 68 9.5C68 9.776 67.776 10 67.5 10ZM71.5 10H69.5C69.224 10 69 9.776 69 9.5C69 9.224 69.224 9 69.5 9H71.5C71.776 9 72 9.224 72 9.5C72 9.776 71.776 10 71.5 10ZM76.5 12H66.5C66.224 12 66 11.776 66 11.5C66 11.224 66.224 11 66.5 11H76.5C76.776 11 77 11.224 77 11.5C77 11.776 76.777 12 76.5 12ZM64.5 12H63.5C63.224 12 63 11.776 63 11.5C63 11.224 63.224 11 63.5 11H64.5C64.776 11 65 11.224 65 11.5C65 11.776 64.776 12 64.5 12ZM61.375 12H59.5C59.224 12 59 11.776 59 11.5C59 11.224 59.224 11 59.5 11H61.375C61.651 11 61.875 11.224 61.875 11.5C61.875 11.776 61.651 12 61.375 12ZM70.5 8H65.5C65.224 8 65 7.776 65 7.5C65 7.224 65.224 7 65.5 7H70.5C70.776 7 71 7.224 71 7.5C71 7.776 70.777 8 70.5 8ZM67.5 14H65.5C65.224 14 65 13.776 65 13.5C65 13.224 65.224 13 65.5 13H67.5C67.776 13 68 13.224 68 13.5C68 13.776 67.776 14 67.5 14Z" fill="white"/>
<path d="M32 57.3002C27.975 57.3002 24.7 54.0262 24.7 50.0002V22.0002C24.7 17.9752 27.974 14.7002 32 14.7002H60C64.025 14.7002 67.3 17.9742 67.3 22.0002V50.0002C67.3 54.0252 64.026 57.3002 60 57.3002H32Z" fill="#3D72B1"/>
<path d="M60 15.4C63.639 15.4 66.6 18.361 66.6 22V50C66.6 53.639 63.639 56.6 60 56.6H32C28.361 56.6 25.4 53.639 25.4 50V22C25.4 18.361 28.361 15.4 32 15.4H60ZM60 14H32C27.582 14 24 17.582 24 22V50C24 54.418 27.582 58 32 58H60C64.418 58 68 54.418 68 50V22C68 17.582 64.418 14 60 14Z" fill="#472B29"/>
<path d="M63.422 33.932L63.428 35.581L63.48 49.124C63.489 51.456 61.588 53.371 59.257 53.38L32.877 53.48C30.545 53.489 28.63 51.588 28.621 49.257L28.521 22.877C28.512 20.545 30.413 18.63 32.744 18.621L56.65 18.53L59.123 18.521C61.455 18.512 63.37 20.413 63.379 22.744L63.391 25.924L63.398 27.808L63.402 28.75L63.406 29.81L63.416 32.519L63.422 33.932Z" fill="#3D72B1"/>
<path d="M63.445 33.5112C63.169 33.5112 62.945 33.2872 62.945 33.0112V29.3052C62.945 29.0292 63.169 28.8052 63.445 28.8052C63.721 28.8052 63.945 29.0292 63.945 29.3052V33.0112C63.945 33.2872 63.722 33.5112 63.445 33.5112Z" fill="#472B29"/>
<path d="M63.508 27.06C63.232 27.06 63.008 26.836 63.008 26.56V24.647C63.008 24.371 63.232 24.147 63.508 24.147C63.784 24.147 64.008 24.371 64.008 24.647V26.56C64.008 26.836 63.784 27.06 63.508 27.06Z" fill="#472B29"/>
<path d="M59.251 53.938H32.812C30.194 53.938 28.063 51.807 28.063 49.189V22.749C28.063 20.131 30.194 18 32.812 18H56.773C57.049 18 57.273 18.224 57.273 18.5C57.273 18.776 57.049 19 56.773 19H32.812C30.745 19 29.063 20.682 29.063 22.749V49.188C29.063 51.255 30.745 52.937 32.812 52.937H59.251C61.318 52.937 63 51.255 63 49.188V35.614C63 35.338 63.224 35.114 63.5 35.114C63.776 35.114 64 35.338 64 35.614V49.188C64 51.807 61.869 53.938 59.251 53.938Z" fill="#472B29"/>
<path d="M31.5 59.5C31.5 59.5 33.067 59.5 35 59.5C36.933 59.5 38.5 57.933 38.5 56C38.5 54.219 37.165 52.766 35.445 52.545C35.473 52.366 35.5 52.187 35.5 52C35.5 50.067 33.933 48.5 32 48.5C30.968 48.5 30.05 48.955 29.41 49.665C29.026 47.857 27.423 46.5 25.5 46.5C23.291 46.5 21.5 48.291 21.5 50.5C21.5 50.691 21.53 50.874 21.556 51.058C21.128 50.714 20.592 50.5 20 50.5C18.772 50.5 17.755 51.387 17.545 52.555C17.366 52.527 17.187 52.5 17 52.5C15.067 52.5 13.5 54.067 13.5 56C13.5 57.933 15.067 59.5 17 59.5C18.933 59.5 24.5 59.5 24.5 59.5V60H31.5V59.5Z" fill="#FDFCEF"/>
<path d="M33.25 55.0002C33.112 55.0002 33 54.8882 33 54.7502C33 53.5272 33.995 52.5322 35.218 52.5322C35.252 52.5412 35.955 52.5312 36.462 52.6682C36.595 52.7042 36.674 52.8412 36.638 52.9742C36.602 53.1082 36.465 53.1872 36.332 53.1502C35.888 53.0302 35.232 53.0302 35.219 53.0322C34.271 53.0322 33.5 53.8032 33.5 54.7502C33.5 54.8882 33.388 55.0002 33.25 55.0002ZM26.5 59.0002C26.2239 59.0002 26 59.2241 26 59.5002C26 59.7764 26.2239 60.0002 26.5 60.0002C26.7761 60.0002 27 59.7764 27 59.5002C27 59.2241 26.7761 59.0002 26.5 59.0002Z" fill="#472B29"/>
<path d="M35 60H31.5C31.224 60 31 59.776 31 59.5C31 59.224 31.224 59 31.5 59H35C36.654 59 38 57.654 38 56C38 54.504 36.875 53.232 35.382 53.041C35.248 53.023 35.127 52.953 35.046 52.845C34.965 52.737 34.931 52.601 34.952 52.468C34.975 52.314 35 52.16 35 52C35 50.346 33.654 49 32 49C31.15 49 30.362 49.355 29.781 50C29.656 50.139 29.46 50.198 29.281 50.148C29.099 50.099 28.96 49.953 28.921 49.769C28.58 48.165 27.141 47 25.5 47C23.57 47 22 48.57 22 50.5C22 50.643 22.021 50.78 22.041 50.918C22.07 51.121 21.978 51.356 21.799 51.458C21.62 51.56 21.403 51.576 21.243 51.448C20.878 51.155 20.449 51 20 51C19.034 51 18.208 51.691 18.037 52.644C17.989 52.911 17.741 53.09 17.468 53.049C17.314 53.025 17.16 53 17 53C15.346 53 14 54.346 14 56C14 57.654 15.346 59 17 59H24.5C24.776 59 25 59.224 25 59.5C25 59.776 24.776 60 24.5 60H17C14.794 60 13 58.206 13 56C13 53.794 14.794 52 17 52C17.059 52 17.116 52.002 17.174 52.006C17.588 50.82 18.711 50 20 50C20.349 50 20.689 50.061 21.011 50.18C21.176 47.847 23.126 46 25.5 46C27.331 46 28.966 47.127 29.653 48.774C30.333 48.276 31.155 48 32 48C34.206 48 36 49.794 36 52C36 52.048 35.999 52.095 35.996 52.142C37.739 52.59 39 54.169 39 56C39 58.206 37.206 60 35 60Z" fill="#472B29"/>
<path d="M29.5 59C29.341 59 28.659 59 28.5 59C28.224 59 28 59.224 28 59.5C28 59.776 28.224 60 28.5 60C28.659 60 29.341 60 29.5 60C29.776 60 30 59.776 30 59.5C30 59.224 29.776 59 29.5 59Z" fill="#472B29"/>
<path d="M56.08 39.2062C58.238 41.4522 58.688 42.5492 58.759 42.6822C59.654 44.3502 57.769 44.4762 57.769 44.4762L54.165 44.5362C54.165 44.5362 53.388 44.7092 52.369 43.9182C51.018 42.8882 49.749 40.1902 48.753 40.5352C47.751 40.8942 47.781 43.3262 47.781 43.3262C47.781 43.3262 47.787 43.7512 47.562 44.0302C47.313 44.3222 46.827 44.2962 46.827 44.2962H45.209C45.209 44.2962 41.647 44.6282 38.511 40.9672C35.091 36.9732 32.074 29.0982 32.074 29.0982C32.074 29.0982 31.902 28.6002 32.086 28.3472C32.299 28.0682 32.88 28.0552 32.88 28.0552L36.739 28.0352C36.739 28.0352 37.101 28.1082 37.361 28.3212C37.574 28.4942 37.699 28.8262 37.699 28.8262C37.699 28.8262 38.321 30.6002 39.145 32.1952C40.757 35.3182 41.51 36.0032 42.055 35.6712C42.855 35.1792 42.612 31.2582 42.612 31.2582C42.612 31.2582 42.63 29.8292 42.209 29.1912C41.889 28.7062 41.284 28.5602 41.012 28.5202C40.793 28.4872 41.154 27.9222 41.617 27.6692C42.311 27.2902 43.538 27.2642 44.984 27.2842C46.11 27.2972 46.436 27.3772 46.875 27.4972C48.209 27.8562 47.758 29.2452 47.758 32.5812C47.758 33.6512 47.586 35.1532 48.274 35.6512C48.57 35.8642 49.294 35.6842 51.096 32.2422C51.955 30.6072 52.596 28.6932 52.596 28.6932C52.596 28.6932 52.738 28.3472 52.958 28.2012C53.183 28.0552 53.486 28.1012 53.486 28.1012L57.546 28.0682C57.546 28.0682 58.761 27.9092 58.963 28.5272C59.17 29.1722 58.507 30.6872 56.847 33.1662C54.118 37.2322 53.815 36.8542 56.08 39.2062Z" fill="#FFFEF4"/>
</svg>
