<svg width="219" height="193" viewBox="0 0 219 193" fill="none" xmlns="http://www.w3.org/2000/svg">
<path fill-rule="evenodd" clip-rule="evenodd" d="M123.361 114.921C140.438 119.274 151.871 135.192 150.822 152.533C133.745 148.181 122.313 132.263 123.361 114.921Z" fill="#073749"/>
<mask id="mask0_19_2" style="mask-type:luminance" maskUnits="userSpaceOnUse" x="110" y="107" width="54" height="53">
<path d="M163.975 107.588H110.413V159.569H163.975V107.588Z" fill="white"/>
<path fill-rule="evenodd" clip-rule="evenodd" d="M123.361 114.921C140.438 119.274 151.871 135.192 150.822 152.533C133.745 148.181 122.313 132.263 123.361 114.921Z" fill="white"/>
</mask>
<g mask="url(#mask0_19_2)">
<path d="M123.361 114.921L124.596 110.076L118.735 108.582L118.37 114.62L123.361 114.921ZM150.822 152.533L149.587 157.378L155.448 158.872L155.813 152.835L150.822 152.533ZM122.126 119.766C136.861 123.522 146.736 137.267 145.831 152.231L155.813 152.835C157.005 133.117 144.015 115.026 124.596 110.076L122.126 119.766ZM152.057 147.688C137.322 143.933 127.447 130.188 128.352 115.223L118.37 114.62C117.178 134.337 130.168 152.429 149.587 157.378L152.057 147.688Z" fill="white"/>
</g>
<path fill-rule="evenodd" clip-rule="evenodd" d="M126.529 110.377C138.463 103.614 153.463 106.387 162.225 116.688C150.29 123.451 135.29 120.678 126.529 110.377Z" fill="#073749"/>
<mask id="mask1_19_2" style="mask-type:luminance" maskUnits="userSpaceOnUse" x="118" y="88" width="53" height="52">
<path d="M170.519 88.2252H118.232V139.617H170.519V88.2252Z" fill="white"/>
<path fill-rule="evenodd" clip-rule="evenodd" d="M126.529 110.377C138.463 103.614 153.463 106.387 162.225 116.688C150.29 123.451 135.29 120.678 126.529 110.377Z" fill="white"/>
</mask>
<g mask="url(#mask1_19_2)">
<path d="M126.529 110.377L124.064 106.027L118.801 109.009L122.72 113.617L126.529 110.377ZM162.225 116.688L164.69 121.038L169.952 118.056L166.033 113.449L162.225 116.688ZM128.994 114.727C138.826 109.156 151.197 111.44 158.416 119.927L166.033 113.449C155.73 101.334 138.1 98.0726 124.064 106.027L128.994 114.727ZM159.759 112.338C149.928 117.91 137.556 115.625 130.337 107.138L122.72 113.617C133.024 125.731 150.653 128.993 164.69 121.038L159.759 112.338Z" fill="white"/>
</g>
<path fill-rule="evenodd" clip-rule="evenodd" d="M157.912 86.4951C152.759 99.2081 139.28 106.351 126.016 103.719C131.169 91.0064 144.648 83.8631 157.912 86.4951Z" fill="#073749"/>
<mask id="mask2_19_2" style="mask-type:luminance" maskUnits="userSpaceOnUse" x="118" y="71" width="48" height="49">
<path d="M165.525 71.1557H118.885V119.67H165.525V71.1557Z" fill="white"/>
<path fill-rule="evenodd" clip-rule="evenodd" d="M157.912 86.4951C152.759 99.2081 139.28 106.351 126.016 103.719C131.169 91.0064 144.648 83.8631 157.912 86.4951Z" fill="white"/>
</mask>
<g mask="url(#mask2_19_2)">
<path d="M157.912 86.4951L162.546 88.3733L164.818 82.768L158.885 81.5907L157.912 86.4951ZM126.016 103.719L121.382 101.841L119.11 107.447L125.043 108.624L126.016 103.719ZM153.278 84.6169C149.033 95.0901 137.918 100.984 126.989 98.815L125.043 108.624C140.642 111.719 156.485 103.326 162.546 88.3733L153.278 84.6169ZM130.65 105.598C134.895 95.1245 146.01 89.2308 156.939 91.3995L158.885 81.5907C143.286 78.4953 127.443 86.8884 121.382 101.841L130.65 105.598Z" fill="white"/>
</g>
<path fill-rule="evenodd" clip-rule="evenodd" d="M109.259 105.803C77.4426 127.02 35.1726 122.342 8.73047 95.4692C40.5471 74.2516 82.8171 78.9305 109.259 105.803Z" fill="#073749"/>
<mask id="mask3_19_2" style="mask-type:luminance" maskUnits="userSpaceOnUse" x="0" y="42" width="118" height="117">
<path d="M117.753 42.5534H0.328178V158.992H117.753V42.5534Z" fill="white"/>
<path fill-rule="evenodd" clip-rule="evenodd" d="M109.259 105.803C77.4426 127.02 35.1726 122.342 8.73047 95.4692C40.5471 74.2516 82.8171 78.9305 109.259 105.803Z" fill="white"/>
</mask>
<g mask="url(#mask3_19_2)">
<path d="M109.259 105.803L112.033 109.963L117.065 106.607L112.823 102.296L109.259 105.803ZM8.73046 95.4692L5.95638 91.3094L0.924446 94.665L5.16652 98.9761L8.73046 95.4692ZM106.485 101.643C76.6793 121.52 37.0667 117.138 12.2944 91.9624L5.16652 98.9761C33.2785 127.545 78.2059 132.521 112.033 109.963L106.485 101.643ZM11.5046 99.6291C41.3104 79.7524 80.923 84.1344 105.695 109.31L112.823 102.296C84.7112 73.7266 39.7837 68.7509 5.95638 91.3094L11.5046 99.6291Z" fill="white"/>
</g>
<path fill-rule="evenodd" clip-rule="evenodd" d="M27.4922 19.9492C71.43 22.588 106.966 56.2527 112.557 99.2839C68.6189 96.6451 33.0833 62.9805 27.4922 19.9492Z" fill="#073749"/>
<mask id="mask4_19_2" style="mask-type:luminance" maskUnits="userSpaceOnUse" x="21" y="13" width="99" height="93">
<path d="M119.508 13.933H21.2622V105.198H119.508V13.933Z" fill="white"/>
<path fill-rule="evenodd" clip-rule="evenodd" d="M27.4922 19.9492C71.43 22.588 106.966 56.2527 112.557 99.2839C68.6189 96.6451 33.0833 62.9805 27.4922 19.9492Z" fill="white"/>
</mask>
<g mask="url(#mask4_19_2)">
<path d="M27.4922 19.9492L27.7919 14.9582L21.7546 14.5956L22.5339 20.5935L27.4922 19.9492ZM112.557 99.2839L112.257 104.275L118.294 104.638L117.515 98.6397L112.557 99.2839ZM27.1924 24.9402C68.7178 27.4342 102.314 59.2579 107.598 99.9282L117.515 98.6397C111.617 53.2475 74.1423 17.7419 27.7919 14.9582L27.1924 24.9402ZM112.856 94.2929C71.3312 91.799 37.7349 59.9753 32.4505 19.305L22.5339 20.5935C28.4317 65.9856 65.9067 101.491 112.257 104.275L112.856 94.2929Z" fill="white"/>
</g>
<path fill-rule="evenodd" clip-rule="evenodd" d="M119.255 97.4461C95.2422 73.8226 91.6822 36.5322 110.104 8.90283C134.116 32.5263 137.676 69.8167 119.255 97.4461Z" fill="#073749"/>
<mask id="mask5_19_2" style="mask-type:luminance" maskUnits="userSpaceOnUse" x="62" y="0" width="107" height="106">
<path d="M168.191 0.435715H62.075V105.998H168.191V0.435715Z" fill="white"/>
<path fill-rule="evenodd" clip-rule="evenodd" d="M119.255 97.4461C95.2422 73.8226 91.6822 36.5322 110.104 8.90283C134.116 32.5263 137.676 69.8167 119.255 97.4461Z" fill="white"/>
</mask>
<g mask="url(#mask5_19_2)">
<path d="M119.255 97.4461L115.748 101.01L120.06 105.252L123.415 100.22L119.255 97.4461ZM110.104 8.90283L113.61 5.33853L109.299 1.09691L105.943 6.12914L110.104 8.90283ZM122.761 93.8818C100.472 71.9532 97.163 37.325 114.264 11.6765L105.943 6.12914C86.2013 35.7394 90.0128 75.6919 115.748 101.01L122.761 93.8818ZM106.597 12.4671C128.887 34.3956 132.195 69.0239 115.095 94.6724L123.415 100.22C143.157 70.6095 139.346 30.657 113.61 5.33853L106.597 12.4671Z" fill="white"/>
</g>
<path fill-rule="evenodd" clip-rule="evenodd" d="M105.932 183.806C92.2721 160.776 97.105 131.394 116.87 113.899C130.53 136.929 125.697 166.31 105.932 183.806Z" fill="#073749"/>
<mask id="mask6_19_2" style="mask-type:luminance" maskUnits="userSpaceOnUse" x="68" y="105" width="87" height="88">
<path d="M154.075 105.535H68.5595V192.134H154.075V105.535Z" fill="white"/>
<path fill-rule="evenodd" clip-rule="evenodd" d="M105.932 183.806C92.2721 160.776 97.105 131.394 116.87 113.899C130.53 136.929 125.697 166.31 105.932 183.806Z" fill="white"/>
</mask>
<g mask="url(#mask6_19_2)">
<path d="M105.932 183.806L101.631 186.356L104.717 191.558L109.246 187.55L105.932 183.806ZM116.87 113.899L121.171 111.348L118.085 106.146L113.556 110.155L116.87 113.899ZM110.232 181.255C97.8055 160.304 102.202 133.56 120.184 117.643L113.556 110.155C92.0083 129.228 86.7387 161.248 101.631 186.356L110.232 181.255ZM112.57 116.45C124.996 137.401 120.6 164.144 102.618 180.062L109.246 187.55C130.794 168.476 136.063 136.457 121.171 111.348L112.57 116.45Z" fill="white"/>
</g>
<path fill-rule="evenodd" clip-rule="evenodd" d="M106.89 110.284C99.7345 120.512 86.3271 124.107 75.0977 119.075C82.2528 108.847 95.6601 105.252 106.89 110.284Z" fill="#228F87"/>
<mask id="mask7_19_2" style="mask-type:luminance" maskUnits="userSpaceOnUse" x="66" y="90" width="49" height="49">
<path d="M114.683 90.3968H66.8402V138.891H114.683V90.3968Z" fill="white"/>
<path fill-rule="evenodd" clip-rule="evenodd" d="M106.89 110.284C99.7345 120.512 86.3271 124.107 75.0977 119.075C82.2528 108.847 95.6601 105.252 106.89 110.284Z" fill="white"/>
</mask>
<g mask="url(#mask7_19_2)">
<path d="M106.89 110.284L110.987 113.15L114.454 108.194L108.934 105.721L106.89 110.284ZM75.0977 119.075L71.0007 116.209L67.5337 121.165L73.0531 123.638L75.0977 119.075ZM102.793 107.418C97.0229 115.665 86.199 118.57 77.1422 114.512L73.0531 123.638C86.4552 129.643 102.446 125.358 110.987 113.15L102.793 107.418ZM79.1946 121.941C84.9643 113.694 95.7883 110.789 104.845 114.847L108.934 105.721C95.532 99.716 79.5412 104.001 71.0007 116.209L79.1946 121.941Z" fill="white"/>
</g>
<path fill-rule="evenodd" clip-rule="evenodd" d="M110.179 114.67C110.744 124.369 104.291 133.033 95.0059 135.38C94.4407 125.681 100.894 117.016 110.179 114.67Z" fill="#34968A"/>
<mask id="mask8_19_2" style="mask-type:luminance" maskUnits="userSpaceOnUse" x="86" y="107" width="33" height="36">
<path d="M118.544 107.896H86.1652V142.031H118.544V107.896Z" fill="white"/>
<path fill-rule="evenodd" clip-rule="evenodd" d="M110.179 114.67C110.744 124.369 104.291 133.033 95.0059 135.38C94.4407 125.681 100.894 117.016 110.179 114.67Z" fill="white"/>
</mask>
<g mask="url(#mask8_19_2)">
<path d="M110.179 114.67L115.171 114.379L114.819 108.34L108.954 109.822L110.179 114.67ZM95.0059 135.38L90.0143 135.671L90.3662 141.709L96.2308 140.228L95.0059 135.38ZM105.188 114.961C105.612 122.247 100.758 128.769 93.7809 130.532L96.2308 140.228C107.824 137.298 115.877 126.49 115.171 114.379L105.188 114.961ZM99.9974 135.089C99.5728 127.803 104.427 121.281 111.404 119.517L108.954 109.822C97.3608 112.752 89.3086 123.559 90.0143 135.671L99.9974 135.089Z" fill="white"/>
</g>
<path fill-rule="evenodd" clip-rule="evenodd" d="M114.408 136.189C110.152 130.803 110.378 123.171 114.805 118.052C119.061 123.438 118.835 131.07 114.408 136.189Z" fill="#459D8D"/>
<mask id="mask9_19_2" style="mask-type:luminance" maskUnits="userSpaceOnUse" x="96" y="109" width="36" height="36">
<path d="M131.852 109.283H96.6433V144.66H131.852V109.283Z" fill="white"/>
<path fill-rule="evenodd" clip-rule="evenodd" d="M114.408 136.189C110.152 130.803 110.378 123.171 114.805 118.052C119.061 123.438 118.835 131.07 114.408 136.189Z" fill="white"/>
</mask>
<g mask="url(#mask9_19_2)">
<path d="M114.408 136.189L110.485 139.289L114.235 144.035L118.191 139.46L114.408 136.189ZM114.805 118.052L118.728 114.952L114.978 110.206L111.022 114.781L114.805 118.052ZM118.331 133.089C115.573 129.599 115.718 124.641 118.587 121.322L111.022 114.781C105.039 121.702 104.73 132.007 110.485 139.289L118.331 133.089ZM110.882 121.152C113.64 124.642 113.495 129.601 110.626 132.919L118.191 139.46C124.174 132.539 124.483 122.235 118.728 114.952L110.882 121.152Z" fill="white"/>
</g>
<path fill-rule="evenodd" clip-rule="evenodd" d="M122.813 101.442C121.254 74.3997 139.262 50.2531 165.156 43.7305C166.715 70.7725 148.707 94.9191 122.813 101.442Z" fill="#14787F"/>
<mask id="mask10_19_2" style="mask-type:luminance" maskUnits="userSpaceOnUse" x="109" y="37" width="69" height="72">
<path d="M177.878 37.0824H109.831V108.644H177.878V37.0824Z" fill="white"/>
<path fill-rule="evenodd" clip-rule="evenodd" d="M122.813 101.442C121.254 74.3997 139.262 50.2531 165.156 43.7305C166.715 70.7725 148.707 94.9191 122.813 101.442Z" fill="white"/>
</mask>
<g mask="url(#mask10_19_2)">
<path d="M122.813 101.442L117.821 101.729L118.169 107.768L124.034 106.29L122.813 101.442ZM165.156 43.7305L170.148 43.4427L169.8 37.4046L163.935 38.8819L165.156 43.7305ZM127.805 101.154C126.385 76.5248 142.792 54.52 166.378 48.579L163.935 38.8819C135.732 45.9861 116.123 72.2746 117.821 101.729L127.805 101.154ZM160.165 44.0183C161.584 68.6474 145.177 90.6521 121.592 96.5932L124.034 106.29C152.237 99.1861 171.846 72.8976 170.148 43.4427L160.165 44.0183Z" fill="white"/>
</g>
<path fill-rule="evenodd" clip-rule="evenodd" d="M210.229 100.334C187.72 121.906 153.124 124.185 128.064 106.391C150.573 84.8191 185.168 82.54 210.229 100.334Z" fill="#2F6C7E"/>
<mask id="mask11_19_2" style="mask-type:luminance" maskUnits="userSpaceOnUse" x="119" y="53" width="100" height="101">
<path d="M218.708 53.7091H119.198V153.474H218.708V53.7091Z" fill="white"/>
<path fill-rule="evenodd" clip-rule="evenodd" d="M210.229 100.334C187.72 121.906 153.124 124.185 128.064 106.391C150.573 84.8191 185.168 82.54 210.229 100.334Z" fill="white"/>
</mask>
<g mask="url(#mask11_19_2)">
<path d="M210.229 100.334L213.688 103.944L218.055 99.7588L213.123 96.2572L210.229 100.334ZM128.064 106.391L124.605 102.782L120.238 106.967L125.169 110.468L128.064 106.391ZM206.769 96.7242C186.005 116.624 154.078 118.73 130.959 102.315L125.169 110.468C152.171 129.641 189.435 127.188 213.688 103.944L206.769 96.7242ZM131.524 110.001C152.287 90.1012 184.215 87.9952 207.334 104.411L213.123 96.2572C186.122 77.0848 148.858 79.537 124.605 102.782L131.524 110.001Z" fill="white"/>
</g>
<path fill-rule="evenodd" clip-rule="evenodd" d="M98.8945 37.0718C118.434 50.7648 125.284 76.399 115.647 97.8555C96.1078 84.1624 89.2578 58.5283 98.8945 37.0718Z" fill="#008080"/>
<mask id="mask12_19_2" style="mask-type:luminance" maskUnits="userSpaceOnUse" x="68" y="28" width="79" height="79">
<path d="M146.273 28.8126H68.0125V106.1H146.273V28.8126Z" fill="white"/>
<path fill-rule="evenodd" clip-rule="evenodd" d="M98.8945 37.0718C118.434 50.7648 125.284 76.399 115.647 97.8555C96.1078 84.1624 89.2578 58.5283 98.8945 37.0718Z" fill="white"/>
</mask>
<g mask="url(#mask12_19_2)">
<path d="M98.8945 37.0718L101.764 32.9772L96.8113 29.5063L94.3334 35.0233L98.8945 37.0718ZM115.647 97.8555L112.778 101.95L117.73 105.421L120.208 99.904L115.647 97.8555ZM96.025 41.1664C113.585 53.4724 119.747 76.5224 111.086 95.807L120.208 99.904C130.82 76.2756 123.283 48.0573 101.764 32.9772L96.025 41.1664ZM118.517 93.7609C100.957 81.4549 94.7944 58.4049 103.456 39.1203L94.3334 35.0233C83.7213 58.6517 91.259 86.87 112.778 101.95L118.517 93.7609Z" fill="white"/>
</g>
<path fill-rule="evenodd" clip-rule="evenodd" d="M109.68 102.598C92.7136 108.162 74.2842 100.771 65.7502 85.3756C82.7164 79.8107 101.146 87.2022 109.68 102.598Z" fill="#0E8683"/>
<mask id="mask13_19_2" style="mask-type:luminance" maskUnits="userSpaceOnUse" x="57" y="64" width="61" height="59">
<path d="M117.804 64.8025H57.9719V122.939H117.804V64.8025Z" fill="white"/>
<path fill-rule="evenodd" clip-rule="evenodd" d="M109.68 102.598C92.7136 108.162 74.2842 100.771 65.7502 85.3756C82.7164 79.8107 101.146 87.2022 109.68 102.598Z" fill="white"/>
</mask>
<g mask="url(#mask13_19_2)">
<path d="M109.68 102.598L111.238 107.348L116.985 105.463L114.053 100.173L109.68 102.598ZM65.7502 85.3756L64.1919 80.6246L58.4448 82.5096L61.3772 87.7996L65.7502 85.3756ZM108.121 97.8465C93.4517 102.658 77.503 96.2645 70.1233 82.9515L61.3772 87.7996C71.0653 105.277 91.9755 113.667 111.238 107.348L108.121 97.8465ZM67.3085 90.1265C81.9782 85.3149 97.927 91.7085 105.307 105.022L114.053 100.173C104.365 82.6959 83.4545 74.3065 64.1919 80.6246L67.3085 90.1265Z" fill="white"/>
</g>
<path fill-rule="evenodd" clip-rule="evenodd" d="M123.361 114.921C140.438 119.274 151.871 135.192 150.822 152.533C133.745 148.181 122.313 132.263 123.361 114.921Z" fill="#073749"/>
<path fill-rule="evenodd" clip-rule="evenodd" d="M126.529 110.377C138.463 103.614 153.463 106.387 162.225 116.688C150.29 123.451 135.29 120.678 126.529 110.377Z" fill="#073749"/>
<path fill-rule="evenodd" clip-rule="evenodd" d="M157.912 86.4951C152.759 99.2081 139.28 106.351 126.016 103.719C131.169 91.0064 144.648 83.8631 157.912 86.4951Z" fill="#073749"/>
<path fill-rule="evenodd" clip-rule="evenodd" d="M109.259 105.803C77.4426 127.02 35.1726 122.342 8.73047 95.4692C40.5471 74.2516 82.8171 78.9305 109.259 105.803Z" fill="#073749"/>
<path fill-rule="evenodd" clip-rule="evenodd" d="M27.4922 19.9492C71.43 22.588 106.966 56.2527 112.557 99.2839C68.6189 96.6451 33.0833 62.9805 27.4922 19.9492Z" fill="#073749"/>
<path fill-rule="evenodd" clip-rule="evenodd" d="M119.255 97.4461C95.2422 73.8226 91.6822 36.5322 110.104 8.90283C134.116 32.5263 137.676 69.8167 119.255 97.4461Z" fill="#073749"/>
<path fill-rule="evenodd" clip-rule="evenodd" d="M105.932 183.806C92.2721 160.776 97.105 131.394 116.87 113.899C130.53 136.929 125.697 166.31 105.932 183.806Z" fill="#073749"/>
<path fill-rule="evenodd" clip-rule="evenodd" d="M106.89 110.284C99.7345 120.512 86.3271 124.107 75.0977 119.075C82.2528 108.847 95.6601 105.252 106.89 110.284Z" fill="#228F87"/>
<path fill-rule="evenodd" clip-rule="evenodd" d="M110.179 114.67C110.744 124.369 104.291 133.033 95.0059 135.38C94.4407 125.681 100.894 117.016 110.179 114.67Z" fill="#34968A"/>
<path fill-rule="evenodd" clip-rule="evenodd" d="M114.408 136.189C110.152 130.803 110.378 123.171 114.805 118.052C119.061 123.438 118.835 131.07 114.408 136.189Z" fill="#459D8D"/>
<path fill-rule="evenodd" clip-rule="evenodd" d="M122.813 101.442C121.254 74.3997 139.262 50.2531 165.156 43.7305C166.715 70.7725 148.707 94.9191 122.813 101.442Z" fill="#14787F"/>
<path fill-rule="evenodd" clip-rule="evenodd" d="M210.229 100.334C187.72 121.906 153.124 124.185 128.064 106.391C150.573 84.8191 185.168 82.54 210.229 100.334Z" fill="#2F6C7E"/>
<path fill-rule="evenodd" clip-rule="evenodd" d="M98.8945 37.0718C118.434 50.7648 125.284 76.399 115.647 97.8555C96.1078 84.1624 89.2578 58.5283 98.8945 37.0718Z" fill="#008080"/>
<path fill-rule="evenodd" clip-rule="evenodd" d="M109.68 102.598C92.7136 108.162 74.2842 100.771 65.7502 85.3756C82.7164 79.8107 101.146 87.2022 109.68 102.598Z" fill="#0E8683"/>
<rect x="111" y="103.5" width="12" height="8" fill="white"/>
</svg>
