<svg width="202" height="175" viewBox="0 0 202 175" fill="none" xmlns="http://www.w3.org/2000/svg">
<path fill-rule="evenodd" clip-rule="evenodd" d="M115.093 106.018C132.171 110.371 143.603 126.289 142.555 143.63C125.477 139.278 114.045 123.36 115.093 106.018Z" fill="#073749"/>
<path fill-rule="evenodd" clip-rule="evenodd" d="M118.261 101.474C130.195 94.7114 145.196 97.4843 153.957 107.785C142.023 114.548 127.022 111.775 118.261 101.474Z" fill="#073749"/>
<path fill-rule="evenodd" clip-rule="evenodd" d="M149.645 77.5923C144.492 90.3053 131.013 97.4486 117.748 94.8166C122.901 82.1036 136.38 74.9602 149.645 77.5923Z" fill="#073749"/>
<path fill-rule="evenodd" clip-rule="evenodd" d="M100.992 96.9C69.175 118.118 26.905 113.439 0.462891 86.5664C32.2795 65.3488 74.5495 70.0277 100.992 96.9Z" fill="#073749"/>
<path fill-rule="evenodd" clip-rule="evenodd" d="M19.2246 11.0464C63.1624 13.6852 98.6981 47.3499 104.289 90.3811C60.3513 87.7423 24.8157 54.0776 19.2246 11.0464Z" fill="#073749"/>
<path fill-rule="evenodd" clip-rule="evenodd" d="M110.987 88.5432C86.9746 64.9198 83.4146 27.6293 101.836 0C125.849 23.6235 129.409 60.9139 110.987 88.5432Z" fill="#073749"/>
<path fill-rule="evenodd" clip-rule="evenodd" d="M97.6641 174.903C84.0045 151.873 88.8374 122.492 108.603 104.996C122.262 128.026 117.429 157.407 97.6641 174.903Z" fill="#073749"/>
<path fill-rule="evenodd" clip-rule="evenodd" d="M98.622 101.381C91.4669 111.609 78.0595 115.204 66.8301 110.172C73.9852 99.9446 87.3926 96.3496 98.622 101.381Z" fill="#228F87"/>
<path fill-rule="evenodd" clip-rule="evenodd" d="M101.912 105.766C102.477 115.465 96.0238 124.13 86.7383 126.477C86.1731 116.778 92.6262 108.113 101.912 105.766Z" fill="#34968A"/>
<path fill-rule="evenodd" clip-rule="evenodd" d="M106.141 127.287C101.884 121.9 102.111 114.269 106.537 109.149C110.793 114.535 110.567 122.167 106.141 127.287Z" fill="#459D8D"/>
<path fill-rule="evenodd" clip-rule="evenodd" d="M114.545 92.5389C112.986 65.4968 130.995 41.3502 156.889 34.8276C158.448 61.8697 140.439 86.0163 114.545 92.5389Z" fill="#14787F"/>
<path fill-rule="evenodd" clip-rule="evenodd" d="M201.961 91.4312C179.453 113.003 144.857 115.283 119.797 97.4886C142.305 75.9162 176.901 73.6372 201.961 91.4312Z" fill="#2F6C7E"/>
<path fill-rule="evenodd" clip-rule="evenodd" d="M90.627 28.1689C110.166 41.862 117.016 67.4962 107.379 88.9527C87.8402 75.2596 80.9902 49.6254 90.627 28.1689Z" fill="#008080"/>
<path fill-rule="evenodd" clip-rule="evenodd" d="M101.412 93.6947C84.446 99.2595 66.0166 91.868 57.4827 76.4727C74.4488 70.9079 92.8782 78.2994 101.412 93.6947Z" fill="#0E8683"/>
</svg>
