<svg width="755" height="192" viewBox="0 0 755 192" fill="none" xmlns="http://www.w3.org/2000/svg">
<g clip-path="url(#clip0_1_228)">
<path fill-rule="evenodd" clip-rule="evenodd" d="M123.361 114.421C140.438 118.774 151.871 134.692 150.822 152.033C133.745 147.681 122.313 131.763 123.361 114.421Z" fill="#073749"/>
<mask id="mask0_1_228" style="mask-type:luminance" maskUnits="userSpaceOnUse" x="110" y="107" width="54" height="53">
<path d="M163.975 107.088H110.413V159.069H163.975V107.088Z" fill="white"/>
<path fill-rule="evenodd" clip-rule="evenodd" d="M123.361 114.421C140.438 118.774 151.871 134.692 150.822 152.033C133.745 147.681 122.313 131.763 123.361 114.421Z" fill="white"/>
</mask>
<g mask="url(#mask0_1_228)">
<path d="M123.361 114.421L124.596 109.576L118.735 108.082L118.37 114.12L123.361 114.421ZM150.822 152.033L149.587 156.878L155.448 158.372L155.813 152.335L150.822 152.033ZM122.126 119.266C136.861 123.022 146.736 136.767 145.831 151.731L155.813 152.335C157.005 132.617 144.015 114.526 124.596 109.576L122.126 119.266ZM152.057 147.188C137.322 143.433 127.447 129.688 128.352 114.723L118.37 114.12C117.178 133.837 130.168 151.929 149.587 156.878L152.057 147.188Z" fill="white"/>
</g>
<path fill-rule="evenodd" clip-rule="evenodd" d="M126.529 109.877C138.463 103.114 153.463 105.887 162.225 116.188C150.29 122.951 135.29 120.178 126.529 109.877Z" fill="#073749"/>
<mask id="mask1_1_228" style="mask-type:luminance" maskUnits="userSpaceOnUse" x="118" y="87" width="53" height="53">
<path d="M170.519 87.7252H118.232V139.117H170.519V87.7252Z" fill="white"/>
<path fill-rule="evenodd" clip-rule="evenodd" d="M126.529 109.877C138.463 103.114 153.463 105.887 162.225 116.188C150.29 122.951 135.29 120.178 126.529 109.877Z" fill="white"/>
</mask>
<g mask="url(#mask1_1_228)">
<path d="M126.529 109.877L124.064 105.527L118.801 108.509L122.72 113.117L126.529 109.877ZM162.225 116.188L164.69 120.538L169.952 117.556L166.033 112.949L162.225 116.188ZM128.994 114.227C138.826 108.656 151.197 110.94 158.416 119.427L166.033 112.949C155.73 100.834 138.1 97.5726 124.064 105.527L128.994 114.227ZM159.759 111.838C149.928 117.41 137.556 115.125 130.337 106.638L122.72 113.117C133.024 125.231 150.653 128.493 164.69 120.538L159.759 111.838Z" fill="white"/>
</g>
<path fill-rule="evenodd" clip-rule="evenodd" d="M157.912 85.9951C152.759 98.7081 139.28 105.851 126.016 103.219C131.169 90.5064 144.648 83.3631 157.912 85.9951Z" fill="#073749"/>
<mask id="mask2_1_228" style="mask-type:luminance" maskUnits="userSpaceOnUse" x="118" y="70" width="48" height="50">
<path d="M165.525 70.6557H118.885V119.17H165.525V70.6557Z" fill="white"/>
<path fill-rule="evenodd" clip-rule="evenodd" d="M157.912 85.9951C152.759 98.7081 139.28 105.851 126.016 103.219C131.169 90.5064 144.648 83.3631 157.912 85.9951Z" fill="white"/>
</mask>
<g mask="url(#mask2_1_228)">
<path d="M157.912 85.9951L162.546 87.8733L164.818 82.268L158.885 81.0907L157.912 85.9951ZM126.016 103.219L121.382 101.341L119.11 106.947L125.043 108.124L126.016 103.219ZM153.278 84.1169C149.033 94.5901 137.918 100.484 126.989 98.315L125.043 108.124C140.642 111.219 156.485 102.826 162.546 87.8733L153.278 84.1169ZM130.65 105.098C134.895 94.6245 146.01 88.7308 156.939 90.8995L158.885 81.0907C143.286 77.9953 127.443 86.3884 121.382 101.341L130.65 105.098Z" fill="white"/>
</g>
<path fill-rule="evenodd" clip-rule="evenodd" d="M109.259 105.303C77.4426 126.52 35.1726 121.842 8.73047 94.9692C40.5471 73.7516 82.8171 78.4305 109.259 105.303Z" fill="#073749"/>
<mask id="mask3_1_228" style="mask-type:luminance" maskUnits="userSpaceOnUse" x="0" y="42" width="118" height="117">
<path d="M117.753 42.0534H0.328178V158.492H117.753V42.0534Z" fill="white"/>
<path fill-rule="evenodd" clip-rule="evenodd" d="M109.259 105.303C77.4426 126.52 35.1726 121.842 8.73047 94.9692C40.5471 73.7516 82.8171 78.4305 109.259 105.303Z" fill="white"/>
</mask>
<g mask="url(#mask3_1_228)">
<path d="M109.259 105.303L112.033 109.463L117.065 106.107L112.823 101.796L109.259 105.303ZM8.73046 94.9692L5.95638 90.8094L0.924446 94.165L5.16652 98.4761L8.73046 94.9692ZM106.485 101.143C76.6793 121.02 37.0667 116.638 12.2944 91.4624L5.16652 98.4761C33.2785 127.045 78.2059 132.021 112.033 109.463L106.485 101.143ZM11.5046 99.1291C41.3104 79.2524 80.923 83.6344 105.695 108.81L112.823 101.796C84.7112 73.2266 39.7837 68.2509 5.95638 90.8094L11.5046 99.1291Z" fill="white"/>
</g>
<path fill-rule="evenodd" clip-rule="evenodd" d="M27.4922 19.4492C71.43 22.088 106.966 55.7527 112.557 98.7839C68.6189 96.1451 33.0833 62.4805 27.4922 19.4492Z" fill="#073749"/>
<mask id="mask4_1_228" style="mask-type:luminance" maskUnits="userSpaceOnUse" x="21" y="13" width="99" height="92">
<path d="M119.508 13.433H21.2622V104.698H119.508V13.433Z" fill="white"/>
<path fill-rule="evenodd" clip-rule="evenodd" d="M27.4922 19.4492C71.43 22.088 106.966 55.7527 112.557 98.7839C68.6189 96.1451 33.0833 62.4805 27.4922 19.4492Z" fill="white"/>
</mask>
<g mask="url(#mask4_1_228)">
<path d="M27.4922 19.4492L27.7919 14.4582L21.7546 14.0956L22.5339 20.0935L27.4922 19.4492ZM112.557 98.7839L112.257 103.775L118.294 104.138L117.515 98.1397L112.557 98.7839ZM27.1924 24.4402C68.7178 26.9342 102.314 58.7579 107.598 99.4282L117.515 98.1397C111.617 52.7475 74.1423 17.2419 27.7919 14.4582L27.1924 24.4402ZM112.856 93.7929C71.3312 91.299 37.7349 59.4753 32.4505 18.805L22.5339 20.0935C28.4317 65.4856 65.9067 100.991 112.257 103.775L112.856 93.7929Z" fill="white"/>
</g>
<path fill-rule="evenodd" clip-rule="evenodd" d="M119.255 96.9461C95.2422 73.3226 91.6822 36.0322 110.104 8.40283C134.116 32.0263 137.676 69.3167 119.255 96.9461Z" fill="#073749"/>
<mask id="mask5_1_228" style="mask-type:luminance" maskUnits="userSpaceOnUse" x="62" y="-1" width="107" height="107">
<path d="M168.191 -0.0642853H62.075V105.498H168.191V-0.0642853Z" fill="white"/>
<path fill-rule="evenodd" clip-rule="evenodd" d="M119.255 96.9461C95.2422 73.3226 91.6822 36.0322 110.104 8.40283C134.116 32.0263 137.676 69.3167 119.255 96.9461Z" fill="white"/>
</mask>
<g mask="url(#mask5_1_228)">
<path d="M119.255 96.9461L115.748 100.51L120.06 104.752L123.415 99.7197L119.255 96.9461ZM110.104 8.40283L113.61 4.83853L109.299 0.596909L105.943 5.62914L110.104 8.40283ZM122.761 93.3818C100.472 71.4532 97.163 36.825 114.264 11.1765L105.943 5.62914C86.2013 35.2394 90.0128 75.1919 115.748 100.51L122.761 93.3818ZM106.597 11.9671C128.887 33.8956 132.195 68.5239 115.095 94.1724L123.415 99.7197C143.157 70.1095 139.346 30.157 113.61 4.83853L106.597 11.9671Z" fill="white"/>
</g>
<path fill-rule="evenodd" clip-rule="evenodd" d="M105.932 183.306C92.2721 160.276 97.105 130.894 116.87 113.399C130.53 136.429 125.697 165.81 105.932 183.306Z" fill="#073749"/>
<mask id="mask6_1_228" style="mask-type:luminance" maskUnits="userSpaceOnUse" x="68" y="105" width="87" height="87">
<path d="M154.075 105.035H68.5595V191.634H154.075V105.035Z" fill="white"/>
<path fill-rule="evenodd" clip-rule="evenodd" d="M105.932 183.306C92.2721 160.276 97.105 130.894 116.87 113.399C130.53 136.429 125.697 165.81 105.932 183.306Z" fill="white"/>
</mask>
<g mask="url(#mask6_1_228)">
<path d="M105.932 183.306L101.631 185.856L104.717 191.058L109.246 187.05L105.932 183.306ZM116.87 113.399L121.171 110.848L118.085 105.646L113.556 109.655L116.87 113.399ZM110.232 180.755C97.8055 159.804 102.202 133.06 120.184 117.143L113.556 109.655C92.0083 128.728 86.7387 160.748 101.631 185.856L110.232 180.755ZM112.57 115.95C124.996 136.901 120.6 163.644 102.618 179.562L109.246 187.05C130.794 167.976 136.063 135.957 121.171 110.848L112.57 115.95Z" fill="white"/>
</g>
<path fill-rule="evenodd" clip-rule="evenodd" d="M106.89 109.784C99.7345 120.012 86.3271 123.607 75.0977 118.575C82.2528 108.347 95.6601 104.752 106.89 109.784Z" fill="#228F87"/>
<mask id="mask7_1_228" style="mask-type:luminance" maskUnits="userSpaceOnUse" x="66" y="89" width="49" height="50">
<path d="M114.683 89.8968H66.8402V138.391H114.683V89.8968Z" fill="white"/>
<path fill-rule="evenodd" clip-rule="evenodd" d="M106.89 109.784C99.7345 120.012 86.3271 123.607 75.0977 118.575C82.2528 108.347 95.6601 104.752 106.89 109.784Z" fill="white"/>
</mask>
<g mask="url(#mask7_1_228)">
<path d="M106.89 109.784L110.987 112.65L114.454 107.694L108.934 105.221L106.89 109.784ZM75.0977 118.575L71.0007 115.709L67.5337 120.665L73.0531 123.138L75.0977 118.575ZM102.793 106.918C97.0229 115.165 86.199 118.07 77.1422 114.012L73.0531 123.138C86.4552 129.143 102.446 124.858 110.987 112.65L102.793 106.918ZM79.1946 121.441C84.9643 113.194 95.7883 110.289 104.845 114.347L108.934 105.221C95.532 99.216 79.5412 103.501 71.0007 115.709L79.1946 121.441Z" fill="white"/>
</g>
<path fill-rule="evenodd" clip-rule="evenodd" d="M110.179 114.17C110.744 123.869 104.291 132.533 95.0059 134.88C94.4407 125.181 100.894 116.516 110.179 114.17Z" fill="#34968A"/>
<mask id="mask8_1_228" style="mask-type:luminance" maskUnits="userSpaceOnUse" x="86" y="107" width="33" height="35">
<path d="M118.544 107.396H86.1652V141.531H118.544V107.396Z" fill="white"/>
<path fill-rule="evenodd" clip-rule="evenodd" d="M110.179 114.17C110.744 123.869 104.291 132.533 95.0059 134.88C94.4407 125.181 100.894 116.516 110.179 114.17Z" fill="white"/>
</mask>
<g mask="url(#mask8_1_228)">
<path d="M110.179 114.17L115.171 113.879L114.819 107.84L108.954 109.322L110.179 114.17ZM95.0059 134.88L90.0143 135.171L90.3662 141.209L96.2308 139.728L95.0059 134.88ZM105.188 114.461C105.612 121.747 100.758 128.269 93.7809 130.032L96.2308 139.728C107.824 136.798 115.877 125.99 115.171 113.879L105.188 114.461ZM99.9974 134.589C99.5728 127.303 104.427 120.781 111.404 119.017L108.954 109.322C97.3608 112.252 89.3086 123.059 90.0143 135.171L99.9974 134.589Z" fill="white"/>
</g>
<path fill-rule="evenodd" clip-rule="evenodd" d="M114.408 135.689C110.152 130.303 110.378 122.671 114.805 117.552C119.061 122.938 118.835 130.57 114.408 135.689Z" fill="#459D8D"/>
<mask id="mask9_1_228" style="mask-type:luminance" maskUnits="userSpaceOnUse" x="96" y="108" width="36" height="37">
<path d="M131.852 108.783H96.6433V144.16H131.852V108.783Z" fill="white"/>
<path fill-rule="evenodd" clip-rule="evenodd" d="M114.408 135.689C110.152 130.303 110.378 122.671 114.805 117.552C119.061 122.938 118.835 130.57 114.408 135.689Z" fill="white"/>
</mask>
<g mask="url(#mask9_1_228)">
<path d="M114.408 135.689L110.485 138.789L114.235 143.535L118.191 138.96L114.408 135.689ZM114.805 117.552L118.728 114.452L114.978 109.706L111.022 114.281L114.805 117.552ZM118.331 132.589C115.573 129.099 115.718 124.141 118.587 120.822L111.022 114.281C105.039 121.202 104.73 131.507 110.485 138.789L118.331 132.589ZM110.882 120.652C113.64 124.142 113.495 129.101 110.626 132.419L118.191 138.96C124.174 132.039 124.483 121.735 118.728 114.452L110.882 120.652Z" fill="white"/>
</g>
<path fill-rule="evenodd" clip-rule="evenodd" d="M122.813 100.942C121.254 73.8997 139.262 49.7531 165.156 43.2305C166.715 70.2725 148.707 94.4191 122.813 100.942Z" fill="#14787F"/>
<mask id="mask10_1_228" style="mask-type:luminance" maskUnits="userSpaceOnUse" x="109" y="36" width="69" height="73">
<path d="M177.878 36.5824H109.831V108.144H177.878V36.5824Z" fill="white"/>
<path fill-rule="evenodd" clip-rule="evenodd" d="M122.813 100.942C121.254 73.8997 139.262 49.7531 165.156 43.2305C166.715 70.2725 148.707 94.4191 122.813 100.942Z" fill="white"/>
</mask>
<g mask="url(#mask10_1_228)">
<path d="M122.813 100.942L117.821 101.229L118.169 107.268L124.034 105.79L122.813 100.942ZM165.156 43.2305L170.148 42.9427L169.8 36.9046L163.935 38.3819L165.156 43.2305ZM127.805 100.654C126.385 76.0248 142.792 54.02 166.378 48.079L163.935 38.3819C135.732 45.4861 116.123 71.7746 117.821 101.229L127.805 100.654ZM160.165 43.5183C161.584 68.1474 145.177 90.1521 121.592 96.0932L124.034 105.79C152.237 98.6861 171.846 72.3976 170.148 42.9427L160.165 43.5183Z" fill="white"/>
</g>
<path fill-rule="evenodd" clip-rule="evenodd" d="M210.229 99.834C187.72 121.406 153.124 123.685 128.064 105.891C150.573 84.3191 185.168 82.04 210.229 99.834Z" fill="#2F6C7E"/>
<mask id="mask11_1_228" style="mask-type:luminance" maskUnits="userSpaceOnUse" x="119" y="53" width="100" height="100">
<path d="M218.708 53.2091H119.198V152.974H218.708V53.2091Z" fill="white"/>
<path fill-rule="evenodd" clip-rule="evenodd" d="M210.229 99.834C187.72 121.406 153.124 123.685 128.064 105.891C150.573 84.3191 185.168 82.04 210.229 99.834Z" fill="white"/>
</mask>
<g mask="url(#mask11_1_228)">
<path d="M210.229 99.834L213.688 103.444L218.055 99.2588L213.123 95.7572L210.229 99.834ZM128.064 105.891L124.605 102.282L120.238 106.467L125.169 109.968L128.064 105.891ZM206.769 96.2242C186.005 116.124 154.078 118.23 130.959 101.815L125.169 109.968C152.171 129.141 189.435 126.688 213.688 103.444L206.769 96.2242ZM131.524 109.501C152.287 89.6012 184.215 87.4952 207.334 103.911L213.123 95.7572C186.122 76.5848 148.858 79.037 124.605 102.282L131.524 109.501Z" fill="white"/>
</g>
<path fill-rule="evenodd" clip-rule="evenodd" d="M98.8945 36.5718C118.434 50.2648 125.284 75.899 115.647 97.3555C96.1078 83.6624 89.2578 58.0283 98.8945 36.5718Z" fill="#008080"/>
<mask id="mask12_1_228" style="mask-type:luminance" maskUnits="userSpaceOnUse" x="68" y="28" width="79" height="78">
<path d="M146.273 28.3126H68.0125V105.6H146.273V28.3126Z" fill="white"/>
<path fill-rule="evenodd" clip-rule="evenodd" d="M98.8945 36.5718C118.434 50.2648 125.284 75.899 115.647 97.3555C96.1078 83.6624 89.2578 58.0283 98.8945 36.5718Z" fill="white"/>
</mask>
<g mask="url(#mask12_1_228)">
<path d="M98.8945 36.5718L101.764 32.4772L96.8113 29.0063L94.3334 34.5233L98.8945 36.5718ZM115.647 97.3555L112.778 101.45L117.73 104.921L120.208 99.404L115.647 97.3555ZM96.025 40.6664C113.585 52.9724 119.747 76.0224 111.086 95.307L120.208 99.404C130.82 75.7756 123.283 47.5573 101.764 32.4772L96.025 40.6664ZM118.517 93.2609C100.957 80.9549 94.7944 57.9049 103.456 38.6203L94.3334 34.5233C83.7213 58.1517 91.259 86.37 112.778 101.45L118.517 93.2609Z" fill="white"/>
</g>
<path fill-rule="evenodd" clip-rule="evenodd" d="M109.68 102.098C92.7136 107.662 74.2842 100.271 65.7502 84.8756C82.7164 79.3107 101.146 86.7022 109.68 102.098Z" fill="#0E8683"/>
<mask id="mask13_1_228" style="mask-type:luminance" maskUnits="userSpaceOnUse" x="57" y="64" width="61" height="59">
<path d="M117.804 64.3025H57.9719V122.439H117.804V64.3025Z" fill="white"/>
<path fill-rule="evenodd" clip-rule="evenodd" d="M109.68 102.098C92.7136 107.662 74.2842 100.271 65.7502 84.8756C82.7164 79.3107 101.146 86.7022 109.68 102.098Z" fill="white"/>
</mask>
<g mask="url(#mask13_1_228)">
<path d="M109.68 102.098L111.238 106.848L116.985 104.963L114.053 99.6734L109.68 102.098ZM65.7502 84.8756L64.1919 80.1246L58.4448 82.0096L61.3772 87.2996L65.7502 84.8756ZM108.121 97.3465C93.4517 102.158 77.503 95.7645 70.1233 82.4515L61.3772 87.2996C71.0653 104.777 91.9755 113.167 111.238 106.848L108.121 97.3465ZM67.3085 89.6265C81.9782 84.8149 97.927 91.2085 105.307 104.522L114.053 99.6734C104.365 82.1959 83.4545 73.8065 64.1919 80.1246L67.3085 89.6265Z" fill="white"/>
</g>
<path d="M754 43H158L132 143H754V43Z" fill="white" fill-opacity="0.5"/>
<path fill-rule="evenodd" clip-rule="evenodd" d="M123.361 114.421C140.438 118.774 151.871 134.692 150.822 152.033C133.745 147.681 122.313 131.763 123.361 114.421Z" fill="#073749"/>
<path fill-rule="evenodd" clip-rule="evenodd" d="M126.529 109.877C138.463 103.114 153.463 105.887 162.225 116.188C150.29 122.951 135.29 120.178 126.529 109.877Z" fill="#073749"/>
<path fill-rule="evenodd" clip-rule="evenodd" d="M157.912 85.9951C152.759 98.7081 139.28 105.851 126.016 103.219C131.169 90.5064 144.648 83.3631 157.912 85.9951Z" fill="#073749"/>
<path fill-rule="evenodd" clip-rule="evenodd" d="M109.259 105.303C77.4426 126.52 35.1726 121.842 8.73047 94.9692C40.5471 73.7516 82.8171 78.4305 109.259 105.303Z" fill="#073749"/>
<path fill-rule="evenodd" clip-rule="evenodd" d="M27.4922 19.4492C71.43 22.088 106.966 55.7527 112.557 98.7839C68.6189 96.1451 33.0833 62.4805 27.4922 19.4492Z" fill="#073749"/>
<path fill-rule="evenodd" clip-rule="evenodd" d="M119.255 96.9461C95.2422 73.3226 91.6822 36.0322 110.104 8.40283C134.116 32.0263 137.676 69.3167 119.255 96.9461Z" fill="#073749"/>
<path fill-rule="evenodd" clip-rule="evenodd" d="M105.932 183.306C92.2721 160.276 97.105 130.894 116.87 113.399C130.53 136.429 125.697 165.81 105.932 183.306Z" fill="#073749"/>
<path fill-rule="evenodd" clip-rule="evenodd" d="M106.89 109.784C99.7345 120.012 86.3271 123.607 75.0977 118.575C82.2528 108.347 95.6601 104.752 106.89 109.784Z" fill="#228F87"/>
<path fill-rule="evenodd" clip-rule="evenodd" d="M110.179 114.17C110.744 123.869 104.291 132.533 95.0059 134.88C94.4407 125.181 100.894 116.516 110.179 114.17Z" fill="#34968A"/>
<path fill-rule="evenodd" clip-rule="evenodd" d="M114.408 135.689C110.152 130.303 110.378 122.671 114.805 117.552C119.061 122.938 118.835 130.57 114.408 135.689Z" fill="#459D8D"/>
<path fill-rule="evenodd" clip-rule="evenodd" d="M122.813 100.942C121.254 73.8997 139.262 49.7531 165.156 43.2305C166.715 70.2725 148.707 94.4191 122.813 100.942Z" fill="#14787F"/>
<path fill-rule="evenodd" clip-rule="evenodd" d="M210.229 99.834C187.72 121.406 153.124 123.685 128.064 105.891C150.573 84.3191 185.168 82.04 210.229 99.834Z" fill="#2F6C7E"/>
<path fill-rule="evenodd" clip-rule="evenodd" d="M98.8945 36.5718C118.434 50.2648 125.284 75.899 115.647 97.3555C96.1078 83.6624 89.2578 58.0283 98.8945 36.5718Z" fill="#008080"/>
<path fill-rule="evenodd" clip-rule="evenodd" d="M109.68 102.098C92.7136 107.662 74.2842 100.271 65.7502 84.8756C82.7164 79.3107 101.146 86.7022 109.68 102.098Z" fill="#0E8683"/>
<path d="M258.496 79.6852C257.757 78.848 256.895 78.1094 255.911 77.4692C254.926 76.7798 253.818 76.1889 252.587 75.6964C251.356 75.204 250.026 74.81 248.598 74.5146C247.219 74.2191 245.742 74.0714 244.166 74.0714C239.586 74.0714 236.213 74.9578 234.046 76.7306C231.929 78.4541 230.87 80.8178 230.87 83.8217C230.87 85.8899 231.363 87.5149 232.347 88.6968C233.382 89.8786 234.982 90.8389 237.149 91.5776C239.315 92.3162 242.073 93.0795 245.422 93.8674C249.164 94.6553 252.39 95.5909 255.098 96.6743C257.806 97.7576 259.899 99.235 261.377 101.106C262.854 102.928 263.593 105.415 263.593 108.567C263.593 110.98 263.125 113.072 262.189 114.845C261.254 116.618 259.949 118.095 258.274 119.277C256.6 120.459 254.606 121.345 252.291 121.936C249.977 122.478 247.441 122.749 244.683 122.749C241.975 122.749 239.365 122.478 236.853 121.936C234.391 121.345 232.052 120.508 229.836 119.425C227.62 118.292 225.552 116.864 223.631 115.141L226.217 110.93C227.152 111.915 228.26 112.851 229.541 113.737C230.87 114.574 232.323 115.338 233.899 116.027C235.524 116.716 237.247 117.258 239.069 117.652C240.94 117.997 242.861 118.169 244.831 118.169C249.016 118.169 252.267 117.406 254.581 115.879C256.945 114.353 258.127 112.088 258.127 109.084C258.127 106.917 257.536 105.193 256.354 103.913C255.172 102.584 253.399 101.5 251.035 100.663C248.672 99.8259 245.766 99.0134 242.319 98.2255C238.675 97.3883 235.598 96.4527 233.086 95.4186C230.575 94.3844 228.679 93.0302 227.398 91.356C226.167 89.6324 225.552 87.3672 225.552 84.5603C225.552 81.3102 226.34 78.5772 227.915 76.3612C229.541 74.096 231.757 72.3971 234.563 71.2645C237.37 70.0826 240.596 69.4917 244.24 69.4917C246.554 69.4917 248.696 69.7379 250.666 70.2304C252.685 70.6736 254.532 71.3384 256.206 72.2247C257.93 73.1111 259.53 74.2191 261.007 75.5487L258.496 79.6852ZM294.056 122.675C289.92 122.675 286.424 121.936 283.567 120.459C280.711 118.982 278.446 117.012 276.772 114.55C275.098 112.038 273.866 109.207 273.079 106.055C272.34 102.904 271.971 99.6535 271.971 96.305V69.861H277.067V96.305C277.067 99.0134 277.338 101.673 277.88 104.282C278.471 106.892 279.406 109.231 280.687 111.3C281.967 113.368 283.691 115.018 285.857 116.249C288.024 117.431 290.732 118.021 293.983 118.021C297.331 118.021 300.089 117.406 302.255 116.175C304.471 114.894 306.195 113.22 307.426 111.152C308.706 109.084 309.617 106.769 310.159 104.209C310.701 101.599 310.972 98.9641 310.972 96.305V69.861H316.142V96.305C316.142 99.8013 315.748 103.15 314.96 106.351C314.172 109.552 312.892 112.358 311.119 114.771C309.396 117.184 307.131 119.105 304.324 120.533C301.517 121.961 298.094 122.675 294.056 122.675ZM324.997 95.714C324.997 92.5132 325.539 89.3862 326.623 86.3331C327.755 83.2307 329.38 80.4238 331.498 77.9124C333.615 75.3517 336.225 73.3327 339.327 71.8554C342.43 70.3289 345.951 69.5656 349.89 69.5656C354.568 69.5656 358.557 70.6489 361.856 72.8157C365.205 74.9332 367.667 77.6662 369.243 81.0148L365.18 83.5262C364.048 81.2117 362.62 79.3897 360.896 78.0601C359.173 76.6813 357.326 75.6964 355.356 75.1055C353.436 74.5146 351.515 74.2191 349.595 74.2191C346.443 74.2191 343.661 74.8593 341.248 76.1396C338.835 77.3707 336.791 79.045 335.117 81.1625C333.492 83.2307 332.261 85.5698 331.424 88.1797C330.587 90.7404 330.168 93.3503 330.168 96.0095C330.168 98.9149 330.661 101.697 331.645 104.356C332.63 107.015 334.009 109.379 335.782 111.447C337.555 113.466 339.623 115.091 341.987 116.323C344.4 117.504 347.009 118.095 349.816 118.095C351.786 118.095 353.805 117.751 355.873 117.061C357.942 116.372 359.862 115.313 361.635 113.885C363.457 112.457 364.91 110.61 365.993 108.345L370.277 110.561C369.194 113.171 367.519 115.387 365.254 117.209C362.989 119.031 360.453 120.41 357.646 121.345C354.888 122.281 352.18 122.749 349.521 122.749C345.926 122.749 342.627 121.986 339.623 120.459C336.619 118.883 334.009 116.815 331.793 114.254C329.626 111.644 327.952 108.739 326.77 105.538C325.588 102.288 324.997 99.0134 324.997 95.714ZM375.059 95.714C375.059 92.5132 375.6 89.3862 376.684 86.3331C377.816 83.2307 379.441 80.4238 381.559 77.9124C383.676 75.3517 386.286 73.3327 389.389 71.8554C392.491 70.3289 396.012 69.5656 399.951 69.5656C404.63 69.5656 408.618 70.6489 411.918 72.8157C415.266 74.9332 417.728 77.6662 419.304 81.0148L415.242 83.5262C414.109 81.2117 412.681 79.3897 410.957 78.0601C409.234 76.6813 407.387 75.6964 405.418 75.1055C403.497 74.5146 401.577 74.2191 399.656 74.2191C396.504 74.2191 393.722 74.8593 391.309 76.1396C388.896 77.3707 386.853 79.045 385.178 81.1625C383.553 83.2307 382.322 85.5698 381.485 88.1797C380.648 90.7404 380.229 93.3503 380.229 96.0095C380.229 98.9149 380.722 101.697 381.707 104.356C382.692 107.015 384.07 109.379 385.843 111.447C387.616 113.466 389.684 115.091 392.048 116.323C394.461 117.504 397.071 118.095 399.878 118.095C401.847 118.095 403.866 117.751 405.935 117.061C408.003 116.372 409.923 115.313 411.696 113.885C413.518 112.457 414.971 110.61 416.054 108.345L420.338 110.561C419.255 113.171 417.581 115.387 415.316 117.209C413.05 119.031 410.514 120.41 407.707 121.345C404.95 122.281 402.241 122.749 399.582 122.749C395.987 122.749 392.688 121.986 389.684 120.459C386.68 118.883 384.07 116.815 381.854 114.254C379.688 111.644 378.013 108.739 376.832 105.538C375.65 102.288 375.059 99.0134 375.059 95.714ZM450.516 122.675C446.38 122.675 442.883 121.936 440.027 120.459C437.171 118.982 434.906 117.012 433.231 114.55C431.557 112.038 430.326 109.207 429.538 106.055C428.799 102.904 428.43 99.6535 428.43 96.305V69.861H433.527V96.305C433.527 99.0134 433.798 101.673 434.339 104.282C434.93 106.892 435.866 109.231 437.146 111.3C438.427 113.368 440.15 115.018 442.317 116.249C444.484 117.431 447.192 118.021 450.442 118.021C453.791 118.021 456.548 117.406 458.715 116.175C460.931 114.894 462.655 113.22 463.886 111.152C465.166 109.084 466.077 106.769 466.619 104.209C467.16 101.599 467.431 98.9641 467.431 96.305V69.861H472.602V96.305C472.602 99.8013 472.208 103.15 471.42 106.351C470.632 109.552 469.352 112.358 467.579 114.771C465.855 117.184 463.59 119.105 460.783 120.533C457.976 121.961 454.554 122.675 450.516 122.675ZM484.929 122.306V69.861H490.099V117.726H520.384V122.306H484.929ZM563.227 117.726V122.306H527.993V69.861H562.562V74.4407H533.164V93.3503H558.795V97.7084H533.164V117.726H563.227ZM578.175 79.3897V122.306H573.005V69.861H577.289L611.71 113.59V69.9349H616.881V122.306H612.08L578.175 79.3897ZM667.291 74.4407H648.603V122.306H643.433V74.4407H624.745V69.861H667.291V74.4407ZM705.801 79.6852C705.063 78.848 704.201 78.1094 703.216 77.4692C702.231 76.7798 701.123 76.1889 699.892 75.6964C698.661 75.204 697.332 74.81 695.903 74.5146C694.525 74.2191 693.047 74.0714 691.472 74.0714C686.892 74.0714 683.519 74.9578 681.352 76.7306C679.234 78.4541 678.176 80.8178 678.176 83.8217C678.176 85.8899 678.668 87.5149 679.653 88.6968C680.687 89.8786 682.288 90.8389 684.454 91.5776C686.621 92.3162 689.379 93.0795 692.727 93.8674C696.47 94.6553 699.695 95.5909 702.404 96.6743C705.112 97.7576 707.205 99.235 708.682 101.106C710.16 102.928 710.898 105.415 710.898 108.567C710.898 110.98 710.43 113.072 709.495 114.845C708.559 116.618 707.254 118.095 705.58 119.277C703.906 120.459 701.911 121.345 699.597 121.936C697.282 122.478 694.746 122.749 691.989 122.749C689.28 122.749 686.67 122.478 684.159 121.936C681.697 121.345 679.358 120.508 677.142 119.425C674.926 118.292 672.857 116.864 670.937 115.141L673.522 110.93C674.458 111.915 675.566 112.851 676.846 113.737C678.176 114.574 679.628 115.338 681.204 116.027C682.829 116.716 684.553 117.258 686.375 117.652C688.246 117.997 690.167 118.169 692.136 118.169C696.322 118.169 699.572 117.406 701.887 115.879C704.25 114.353 705.432 112.088 705.432 109.084C705.432 106.917 704.841 105.193 703.659 103.913C702.478 102.584 700.705 101.5 698.341 100.663C695.977 99.8259 693.072 99.0134 689.625 98.2255C685.981 97.3883 682.903 96.4527 680.392 95.4186C677.88 94.3844 675.984 93.0302 674.704 91.356C673.473 89.6324 672.857 87.3672 672.857 84.5603C672.857 81.3102 673.645 78.5772 675.221 76.3612C676.846 74.096 679.062 72.3971 681.869 71.2645C684.676 70.0826 687.901 69.4917 691.545 69.4917C693.86 69.4917 696.002 69.7379 697.972 70.2304C699.991 70.6736 701.837 71.3384 703.512 72.2247C705.235 73.1111 706.836 74.2191 708.313 75.5487L705.801 79.6852Z" fill="#073749"/>
<rect x="111" y="103" width="12" height="8" fill="white"/>
</g>
<defs>
<clipPath id="clip0_1_228">
<rect width="755" height="191" fill="white" transform="translate(0 0.5)"/>
</clipPath>
</defs>
</svg>
