<svg width="751" height="175" viewBox="0 0 751 175" fill="none" xmlns="http://www.w3.org/2000/svg">
<rect y="13.9028" width="751" height="147" rx="73.5" fill="white"/>
<path fill-rule="evenodd" clip-rule="evenodd" d="M117.093 106.018C134.171 110.371 145.603 126.289 144.555 143.63C127.477 139.278 116.045 123.36 117.093 106.018Z" fill="#073749"/>
<path fill-rule="evenodd" clip-rule="evenodd" d="M155.957 107.785C144.023 114.548 129.022 111.775 120.261 101.474C132.195 94.7114 147.196 97.4843 155.957 107.785Z" fill="#073749"/>
<path fill-rule="evenodd" clip-rule="evenodd" d="M119.748 94.8166C124.901 82.1036 138.38 74.9602 151.645 77.5923C146.492 90.3053 133.013 97.4486 119.748 94.8166Z" fill="#073749"/>
<path fill-rule="evenodd" clip-rule="evenodd" d="M2.46289 86.5664C34.2795 65.3488 76.5495 70.0277 102.992 96.9C71.175 118.118 28.905 113.439 2.46289 86.5664Z" fill="#073749"/>
<path fill-rule="evenodd" clip-rule="evenodd" d="M106.289 90.3811C62.3513 87.7423 26.8157 54.0776 21.2246 11.0464C65.1624 13.6852 100.698 47.3499 106.289 90.3811Z" fill="#073749"/>
<path fill-rule="evenodd" clip-rule="evenodd" d="M103.836 0C127.849 23.6235 131.409 60.9139 112.987 88.5432C88.9746 64.9198 85.4146 27.6293 103.836 0Z" fill="#073749"/>
<path fill-rule="evenodd" clip-rule="evenodd" d="M99.6641 174.903C86.0045 151.873 90.8374 122.492 110.603 104.996C124.262 128.026 119.429 157.407 99.6641 174.903Z" fill="#073749"/>
<path fill-rule="evenodd" clip-rule="evenodd" d="M100.622 101.381C93.4669 111.609 80.0595 115.204 68.8301 110.172C75.9852 99.9446 89.3926 96.3496 100.622 101.381Z" fill="#228F87"/>
<path fill-rule="evenodd" clip-rule="evenodd" d="M103.912 105.766C104.477 115.465 98.0238 124.13 88.7383 126.477C88.1731 116.778 94.6262 108.113 103.912 105.766Z" fill="#34968A"/>
<path fill-rule="evenodd" clip-rule="evenodd" d="M108.537 109.149C112.793 114.535 112.567 122.167 108.141 127.287C103.884 121.9 104.111 114.269 108.537 109.149Z" fill="#459D8D"/>
<path fill-rule="evenodd" clip-rule="evenodd" d="M116.545 92.5389C114.986 65.4968 132.995 41.3502 158.889 34.8276C160.448 61.8697 142.439 86.0163 116.545 92.5389Z" fill="#14787F"/>
<path fill-rule="evenodd" clip-rule="evenodd" d="M121.797 97.4886C144.305 75.9162 178.901 73.6372 203.961 91.4312C181.453 113.003 146.857 115.283 121.797 97.4886Z" fill="#2F6C7E"/>
<path fill-rule="evenodd" clip-rule="evenodd" d="M92.627 28.1689C112.166 41.862 119.016 67.4962 109.379 88.9527C89.8402 75.2596 82.9902 49.6254 92.627 28.1689Z" fill="#008080"/>
<path fill-rule="evenodd" clip-rule="evenodd" d="M103.412 93.6946C86.4458 99.2595 68.0164 91.868 59.4824 76.4727C76.4485 70.9078 94.878 78.2993 103.412 93.6946Z" fill="#0E8683"/>
<path d="M252.228 71.2823C251.49 70.4452 250.628 69.7065 249.643 69.0664C248.658 68.377 247.55 67.786 246.319 67.2936C245.088 66.8012 243.758 66.4072 242.33 66.1118C240.951 65.8163 239.474 65.6686 237.898 65.6686C233.319 65.6686 229.945 66.5549 227.779 68.3277C225.661 70.0513 224.603 72.415 224.603 75.4188C224.603 77.4871 225.095 79.1121 226.08 80.294C227.114 81.4758 228.714 82.4361 230.881 83.1747C233.048 83.9134 235.805 84.6767 239.154 85.4646C242.897 86.2525 246.122 87.1881 248.83 88.2714C251.539 89.3548 253.632 90.8321 255.109 92.7034C256.586 94.5254 257.325 97.0122 257.325 100.164C257.325 102.577 256.857 104.67 255.922 106.442C254.986 108.215 253.681 109.692 252.007 110.874C250.332 112.056 248.338 112.943 246.024 113.534C243.709 114.075 241.173 114.346 238.415 114.346C235.707 114.346 233.097 114.075 230.586 113.534C228.123 112.943 225.784 112.105 223.568 111.022C221.352 109.889 219.284 108.461 217.364 106.738L219.949 102.528C220.885 103.512 221.993 104.448 223.273 105.334C224.603 106.172 226.055 106.935 227.631 107.624C229.256 108.314 230.98 108.855 232.802 109.249C234.673 109.594 236.593 109.766 238.563 109.766C242.749 109.766 245.999 109.003 248.313 107.477C250.677 105.95 251.859 103.685 251.859 100.681C251.859 98.5142 251.268 96.7906 250.086 95.5103C248.904 94.1807 247.132 93.0973 244.768 92.2602C242.404 91.4231 239.499 90.6105 236.052 89.8226C232.408 88.9855 229.33 88.0499 226.819 87.0157C224.307 85.9816 222.411 84.6274 221.131 82.9531C219.9 81.2296 219.284 78.9644 219.284 76.1575C219.284 72.9074 220.072 70.1744 221.648 67.9584C223.273 65.6932 225.489 63.9943 228.296 62.8617C231.103 61.6798 234.328 61.0889 237.972 61.0889C240.287 61.0889 242.429 61.3351 244.399 61.8275C246.418 62.2707 248.264 62.9355 249.938 63.8219C251.662 64.7083 253.262 65.8163 254.74 67.1459L252.228 71.2823ZM287.789 114.272C283.652 114.272 280.156 113.534 277.3 112.056C274.444 110.579 272.179 108.609 270.504 106.147C268.83 103.636 267.599 100.804 266.811 97.6524C266.072 94.5008 265.703 91.2507 265.703 87.9021V61.4582H270.8V87.9021C270.8 90.6105 271.071 93.2697 271.612 95.8796C272.203 98.4895 273.139 100.829 274.419 102.897C275.699 104.965 277.423 106.615 279.59 107.846C281.756 109.028 284.465 109.619 287.715 109.619C291.064 109.619 293.821 109.003 295.988 107.772C298.204 106.492 299.927 104.817 301.159 102.749C302.439 100.681 303.35 98.3664 303.892 95.8057C304.433 93.1958 304.704 90.5613 304.704 87.9021V61.4582H309.875V87.9021C309.875 91.3984 309.481 94.747 308.693 97.9479C307.905 101.149 306.625 103.956 304.852 106.369C303.128 108.781 300.863 110.702 298.056 112.13C295.249 113.558 291.827 114.272 287.789 114.272ZM318.73 87.3112C318.73 84.1104 319.272 80.9834 320.355 77.9303C321.488 74.8279 323.113 72.021 325.23 69.5096C327.348 66.9489 329.957 64.9299 333.06 63.4526C336.162 61.926 339.683 61.1628 343.623 61.1628C348.301 61.1628 352.29 62.2461 355.589 64.4128C358.937 66.5303 361.4 69.2634 362.975 72.6119L358.913 75.1234C357.78 72.8089 356.352 70.9869 354.629 69.6573C352.905 68.2785 351.058 67.2936 349.089 66.7027C347.168 66.1118 345.248 65.8163 343.327 65.8163C340.176 65.8163 337.393 66.4565 334.98 67.7368C332.567 68.9679 330.524 70.6422 328.849 72.7597C327.224 74.8279 325.993 77.167 325.156 79.7769C324.319 82.3376 323.9 84.9475 323.9 87.6067C323.9 90.512 324.393 93.2943 325.378 95.9535C326.363 98.6126 327.742 100.976 329.514 103.045C331.287 105.064 333.355 106.689 335.719 107.92C338.132 109.102 340.742 109.692 343.549 109.692C345.519 109.692 347.537 109.348 349.606 108.658C351.674 107.969 353.594 106.91 355.367 105.482C357.189 104.054 358.642 102.207 359.725 99.9422L364.01 102.158C362.926 104.768 361.252 106.984 358.987 108.806C356.721 110.628 354.185 112.007 351.379 112.943C348.621 113.878 345.912 114.346 343.253 114.346C339.658 114.346 336.359 113.583 333.355 112.056C330.351 110.48 327.742 108.412 325.526 105.851C323.359 103.242 321.685 100.336 320.503 97.1353C319.321 93.8852 318.73 90.6105 318.73 87.3112ZM368.791 87.3112C368.791 84.1104 369.333 80.9834 370.416 77.9303C371.549 74.8279 373.174 72.021 375.291 69.5096C377.409 66.9489 380.019 64.9299 383.121 63.4526C386.223 61.926 389.744 61.1628 393.684 61.1628C398.362 61.1628 402.351 62.2461 405.65 64.4128C408.999 66.5303 411.461 69.2634 413.037 72.6119L408.974 75.1234C407.841 72.8089 406.413 70.9869 404.69 69.6573C402.966 68.2785 401.12 67.2936 399.15 66.7027C397.229 66.1118 395.309 65.8163 393.388 65.8163C390.237 65.8163 387.455 66.4565 385.042 67.7368C382.629 68.9679 380.585 70.6422 378.911 72.7597C377.286 74.8279 376.055 77.167 375.217 79.7769C374.38 82.3376 373.962 84.9475 373.962 87.6067C373.962 90.512 374.454 93.2943 375.439 95.9535C376.424 98.6126 377.803 100.976 379.576 103.045C381.348 105.064 383.417 106.689 385.78 107.92C388.193 109.102 390.803 109.692 393.61 109.692C395.58 109.692 397.599 109.348 399.667 108.658C401.735 107.969 403.656 106.91 405.429 105.482C407.251 104.054 408.703 102.207 409.787 99.9422L414.071 102.158C412.987 104.768 411.313 106.984 409.048 108.806C406.783 110.628 404.247 112.007 401.44 112.943C398.682 113.878 395.974 114.346 393.315 114.346C389.72 114.346 386.42 113.583 383.417 112.056C380.413 110.48 377.803 108.412 375.587 105.851C373.42 103.242 371.746 100.336 370.564 97.1353C369.382 93.8852 368.791 90.6105 368.791 87.3112ZM444.248 114.272C440.112 114.272 436.616 113.534 433.759 112.056C430.903 110.579 428.638 108.609 426.964 106.147C425.29 103.636 424.058 100.804 423.271 97.6524C422.532 94.5008 422.163 91.2507 422.163 87.9021V61.4582H427.259V87.9021C427.259 90.6105 427.53 93.2697 428.072 95.8796C428.663 98.4895 429.598 100.829 430.879 102.897C432.159 104.965 433.883 106.615 436.049 107.846C438.216 109.028 440.924 109.619 444.175 109.619C447.523 109.619 450.281 109.003 452.448 107.772C454.663 106.492 456.387 104.817 457.618 102.749C458.898 100.681 459.809 98.3664 460.351 95.8057C460.893 93.1958 461.164 90.5613 461.164 87.9021V61.4582H466.334V87.9021C466.334 91.3984 465.94 94.747 465.152 97.9479C464.364 101.149 463.084 103.956 461.311 106.369C459.588 108.781 457.323 110.702 454.516 112.13C451.709 113.558 448.286 114.272 444.248 114.272ZM478.661 113.903V61.4582H483.832V109.323H514.117V113.903H478.661ZM556.959 109.323V113.903H521.725V61.4582H556.295V66.0379H526.896V84.9475H552.527V89.3056H526.896V109.323H556.959ZM571.908 70.9869V113.903H566.737V61.4582H571.021L605.443 105.187V61.5321H610.613V113.903H605.812L571.908 70.9869ZM661.024 66.0379H642.336V113.903H637.165V66.0379H618.477V61.4582H661.024V66.0379ZM699.534 71.2823C698.795 70.4452 697.933 69.7065 696.949 69.0664C695.964 68.377 694.856 67.786 693.625 67.2936C692.394 66.8012 691.064 66.4072 689.636 66.1118C688.257 65.8163 686.78 65.6686 685.204 65.6686C680.624 65.6686 677.251 66.5549 675.084 68.3277C672.967 70.0513 671.908 72.415 671.908 75.4188C671.908 77.4871 672.401 79.1121 673.385 80.294C674.42 81.4758 676.02 82.4361 678.187 83.1747C680.353 83.9134 683.111 84.6767 686.46 85.4646C690.202 86.2525 693.428 87.1881 696.136 88.2714C698.844 89.3548 700.937 90.8321 702.415 92.7034C703.892 94.5254 704.631 97.0122 704.631 100.164C704.631 102.577 704.163 104.67 703.227 106.442C702.292 108.215 700.987 109.692 699.312 110.874C697.638 112.056 695.644 112.943 693.329 113.534C691.015 114.075 688.479 114.346 685.721 114.346C683.013 114.346 680.403 114.075 677.891 113.534C675.429 112.943 673.09 112.105 670.874 111.022C668.658 109.889 666.59 108.461 664.669 106.738L667.255 102.528C668.19 103.512 669.298 104.448 670.579 105.334C671.908 106.172 673.361 106.935 674.937 107.624C676.562 108.314 678.285 108.855 680.107 109.249C681.978 109.594 683.899 109.766 685.869 109.766C690.054 109.766 693.305 109.003 695.619 107.477C697.983 105.95 699.165 103.685 699.165 100.681C699.165 98.5142 698.574 96.7906 697.392 95.5103C696.21 94.1807 694.437 93.0973 692.073 92.2602C689.71 91.4231 686.804 90.6105 683.357 89.8226C679.713 88.9855 676.636 88.0499 674.124 87.0157C671.613 85.9816 669.717 84.6274 668.436 82.9531C667.205 81.2296 666.59 78.9644 666.59 76.1575C666.59 72.9074 667.378 70.1744 668.954 67.9584C670.579 65.6932 672.795 63.9943 675.601 62.8617C678.408 61.6798 681.634 61.0889 685.278 61.0889C687.592 61.0889 689.734 61.3351 691.704 61.8275C693.723 62.2707 695.57 62.9355 697.244 63.8219C698.968 64.7083 700.568 65.8163 702.045 67.1459L699.534 71.2823Z" fill="#073749"/>
</svg>
