<svg width="747" height="176" viewBox="0 0 747 176" fill="none" xmlns="http://www.w3.org/2000/svg">
<path fill-rule="evenodd" clip-rule="evenodd" d="M115.361 106.824C132.438 111.176 143.871 127.094 142.822 144.436C125.745 140.083 114.313 124.165 115.361 106.824Z" fill="#073749"/>
<path fill-rule="evenodd" clip-rule="evenodd" d="M118.529 102.28C130.463 95.5165 145.463 98.2894 154.225 108.59C142.29 115.353 127.29 112.581 118.529 102.28Z" fill="#073749"/>
<path fill-rule="evenodd" clip-rule="evenodd" d="M149.912 78.3975C144.759 91.1104 131.28 98.2538 118.016 95.6217C123.169 82.9088 136.648 75.7654 149.912 78.3975Z" fill="#073749"/>
<path fill-rule="evenodd" clip-rule="evenodd" d="M101.259 97.7052C69.4426 118.923 27.1726 114.244 0.730469 87.3716C32.5471 66.154 74.8171 70.8329 101.259 97.7052Z" fill="#073749"/>
<path fill-rule="evenodd" clip-rule="evenodd" d="M19.4922 11.8516C63.43 14.4904 98.9656 48.155 104.557 91.1863C60.6189 88.5474 25.0833 54.8828 19.4922 11.8516Z" fill="#073749"/>
<path fill-rule="evenodd" clip-rule="evenodd" d="M111.255 89.3484C87.2422 65.7249 83.6822 28.4345 102.104 0.805176C126.116 24.4286 129.676 61.7191 111.255 89.3484Z" fill="#073749"/>
<path fill-rule="evenodd" clip-rule="evenodd" d="M97.9316 175.708C84.2721 152.678 89.105 123.297 108.87 105.801C122.53 128.831 117.697 158.213 97.9316 175.708Z" fill="#073749"/>
<path fill-rule="evenodd" clip-rule="evenodd" d="M98.8896 102.186C91.7345 112.414 78.3271 116.009 67.0977 110.978C74.2528 100.75 87.6601 97.1548 98.8896 102.186Z" fill="#228F87"/>
<path fill-rule="evenodd" clip-rule="evenodd" d="M102.179 106.572C102.744 116.271 96.2913 124.936 87.0059 127.282C86.4407 117.583 92.8938 108.919 102.179 106.572Z" fill="#34968A"/>
<path fill-rule="evenodd" clip-rule="evenodd" d="M106.408 128.092C102.152 122.705 102.378 115.074 106.805 109.954C111.061 115.341 110.835 122.972 106.408 128.092Z" fill="#459D8D"/>
<path fill-rule="evenodd" clip-rule="evenodd" d="M114.813 93.3441C113.254 66.302 131.262 42.1554 157.156 35.6328C158.715 62.6748 140.707 86.8215 114.813 93.3441Z" fill="#14787F"/>
<path fill-rule="evenodd" clip-rule="evenodd" d="M202.229 92.2363C179.72 113.809 145.124 116.088 120.064 98.2938C142.573 76.7214 177.168 74.4423 202.229 92.2363Z" fill="#2F6C7E"/>
<path fill-rule="evenodd" clip-rule="evenodd" d="M90.8945 28.9741C110.434 42.6672 117.284 68.3013 107.647 89.7578C88.1078 76.0648 81.2578 50.4306 90.8945 28.9741Z" fill="#008080"/>
<path fill-rule="evenodd" clip-rule="evenodd" d="M101.68 94.4999C84.7136 100.065 66.2842 92.6732 57.7502 77.2779C74.7164 71.7131 93.1458 79.1045 101.68 94.4999Z" fill="#0E8683"/>
<rect x="13.2676" y="18.8052" width="733" height="134" fill="white"/>
<path fill-rule="evenodd" clip-rule="evenodd" d="M115.361 106.824C132.438 111.176 143.871 127.094 142.822 144.436C125.745 140.083 114.313 124.165 115.361 106.824Z" fill="#073749"/>
<path fill-rule="evenodd" clip-rule="evenodd" d="M118.529 102.28C130.463 95.5165 145.463 98.2894 154.225 108.59C142.29 115.353 127.29 112.581 118.529 102.28Z" fill="#073749"/>
<path fill-rule="evenodd" clip-rule="evenodd" d="M149.912 78.3975C144.759 91.1104 131.28 98.2538 118.016 95.6217C123.169 82.9088 136.648 75.7654 149.912 78.3975Z" fill="#073749"/>
<path fill-rule="evenodd" clip-rule="evenodd" d="M101.259 97.7052C69.4426 118.923 27.1726 114.244 0.730469 87.3716C32.5471 66.154 74.8171 70.8329 101.259 97.7052Z" fill="#073749"/>
<path fill-rule="evenodd" clip-rule="evenodd" d="M19.4922 11.8516C63.43 14.4904 98.9656 48.155 104.557 91.1863C60.6189 88.5474 25.0833 54.8828 19.4922 11.8516Z" fill="#073749"/>
<path fill-rule="evenodd" clip-rule="evenodd" d="M111.255 89.3484C87.2422 65.7249 83.6822 28.4345 102.104 0.805176C126.116 24.4286 129.676 61.7191 111.255 89.3484Z" fill="#073749"/>
<path fill-rule="evenodd" clip-rule="evenodd" d="M97.9316 175.708C84.2721 152.678 89.105 123.297 108.87 105.801C122.53 128.831 117.697 158.213 97.9316 175.708Z" fill="#073749"/>
<path fill-rule="evenodd" clip-rule="evenodd" d="M98.8896 102.186C91.7345 112.414 78.3271 116.009 67.0977 110.978C74.2528 100.75 87.6601 97.1548 98.8896 102.186Z" fill="#228F87"/>
<path fill-rule="evenodd" clip-rule="evenodd" d="M102.179 106.572C102.744 116.271 96.2913 124.936 87.0059 127.282C86.4407 117.583 92.8938 108.919 102.179 106.572Z" fill="#34968A"/>
<path fill-rule="evenodd" clip-rule="evenodd" d="M106.408 128.092C102.152 122.705 102.378 115.074 106.805 109.954C111.061 115.341 110.835 122.972 106.408 128.092Z" fill="#459D8D"/>
<path fill-rule="evenodd" clip-rule="evenodd" d="M114.813 93.3441C113.254 66.302 131.262 42.1554 157.156 35.6328C158.715 62.6748 140.707 86.8215 114.813 93.3441Z" fill="#14787F"/>
<path fill-rule="evenodd" clip-rule="evenodd" d="M202.229 92.2363C179.72 113.809 145.124 116.088 120.064 98.2938C142.573 76.7214 177.168 74.4423 202.229 92.2363Z" fill="#2F6C7E"/>
<path fill-rule="evenodd" clip-rule="evenodd" d="M90.8945 28.9741C110.434 42.6672 117.284 68.3013 107.647 89.7578C88.1078 76.0648 81.2578 50.4306 90.8945 28.9741Z" fill="#008080"/>
<path fill-rule="evenodd" clip-rule="evenodd" d="M101.68 94.4999C84.7136 100.065 66.2842 92.6732 57.7502 77.2779C74.7164 71.7131 93.1458 79.1045 101.68 94.4999Z" fill="#0E8683"/>
<path d="M250.496 72.0875C249.757 71.2504 248.895 70.5117 247.911 69.8716C246.926 69.1821 245.818 68.5912 244.587 68.0988C243.356 67.6063 242.026 67.2124 240.598 66.9169C239.219 66.6215 237.742 66.4737 236.166 66.4737C231.586 66.4737 228.213 67.3601 226.046 69.1329C223.929 70.8564 222.87 73.2201 222.87 76.224C222.87 78.2922 223.363 79.9173 224.347 81.0991C225.382 82.281 226.982 83.2412 229.149 83.9799C231.315 84.7186 234.073 85.4818 237.422 86.2697C241.164 87.0576 244.39 87.9933 247.098 89.0766C249.806 90.16 251.899 91.6373 253.377 93.5086C254.854 95.3306 255.593 97.8174 255.593 100.969C255.593 103.382 255.125 105.475 254.189 107.248C253.254 109.02 251.949 110.498 250.274 111.68C248.6 112.861 246.606 113.748 244.291 114.339C241.977 114.88 239.441 115.151 236.683 115.151C233.975 115.151 231.365 114.88 228.853 114.339C226.391 113.748 224.052 112.911 221.836 111.827C219.62 110.695 217.552 109.267 215.631 107.543L218.217 103.333C219.152 104.318 220.26 105.253 221.541 106.14C222.87 106.977 224.323 107.74 225.899 108.429C227.524 109.119 229.247 109.661 231.069 110.054C232.94 110.399 234.861 110.572 236.831 110.572C241.016 110.572 244.267 109.808 246.581 108.282C248.945 106.755 250.127 104.49 250.127 101.486C250.127 99.3193 249.536 97.5958 248.354 96.3155C247.172 94.9859 245.399 93.9025 243.035 93.0654C240.672 92.2282 237.766 91.4157 234.319 90.6278C230.675 89.7907 227.598 88.855 225.086 87.8209C222.575 86.7868 220.679 85.4326 219.398 83.7583C218.167 82.0348 217.552 79.7696 217.552 76.9627C217.552 73.7126 218.34 70.9795 219.915 68.7636C221.541 66.4984 223.757 64.7994 226.563 63.6668C229.37 62.485 232.596 61.8941 236.24 61.8941C238.554 61.8941 240.696 62.1403 242.666 62.6327C244.685 63.0759 246.532 63.7407 248.206 64.6271C249.93 65.5135 251.53 66.6215 253.007 67.951L250.496 72.0875ZM286.056 115.077C281.92 115.077 278.424 114.339 275.567 112.861C272.711 111.384 270.446 109.414 268.772 106.952C267.098 104.441 265.866 101.609 265.079 98.4576C264.34 95.306 263.971 92.0559 263.971 88.7073V62.2634H269.067V88.7073C269.067 91.4157 269.338 94.0749 269.88 96.6848C270.471 99.2947 271.406 101.634 272.687 103.702C273.967 105.77 275.691 107.42 277.857 108.651C280.024 109.833 282.732 110.424 285.983 110.424C289.331 110.424 292.089 109.808 294.255 108.577C296.471 107.297 298.195 105.623 299.426 103.554C300.706 101.486 301.617 99.1716 302.159 96.6109C302.701 94.001 302.972 91.3665 302.972 88.7073V62.2634H308.142V88.7073C308.142 92.2036 307.748 95.5522 306.96 98.753C306.172 101.954 304.892 104.761 303.119 107.174C301.396 109.587 299.131 111.507 296.324 112.935C293.517 114.363 290.094 115.077 286.056 115.077ZM316.997 88.1164C316.997 84.9155 317.539 81.7885 318.623 78.7354C319.755 75.6331 321.38 72.8262 323.498 70.3147C325.615 67.7541 328.225 65.7351 331.327 64.2578C334.43 62.7312 337.951 61.9679 341.89 61.9679C346.568 61.9679 350.557 63.0513 353.856 65.218C357.205 67.3355 359.667 70.0685 361.243 73.4171L357.18 75.9285C356.048 73.6141 354.62 71.7921 352.896 70.4625C351.173 69.0837 349.326 68.0988 347.356 67.5079C345.436 66.9169 343.515 66.6215 341.595 66.6215C338.443 66.6215 335.661 67.2616 333.248 68.542C330.835 69.7731 328.791 71.4474 327.117 73.5648C325.492 75.6331 324.261 77.9722 323.424 80.5821C322.587 83.1428 322.168 85.7527 322.168 88.4118C322.168 91.3172 322.661 94.0995 323.645 96.7587C324.63 99.4178 326.009 101.782 327.782 103.85C329.555 105.869 331.623 107.494 333.987 108.725C336.4 109.907 339.009 110.498 341.816 110.498C343.786 110.498 345.805 110.153 347.873 109.464C349.942 108.774 351.862 107.715 353.635 106.287C355.457 104.859 356.91 103.013 357.993 100.747L362.277 102.963C361.194 105.573 359.519 107.789 357.254 109.611C354.989 111.433 352.453 112.812 349.646 113.748C346.888 114.683 344.18 115.151 341.521 115.151C337.926 115.151 334.627 114.388 331.623 112.861C328.619 111.286 326.009 109.217 323.793 106.657C321.626 104.047 319.952 101.141 318.77 97.9405C317.588 94.6904 316.997 91.4157 316.997 88.1164ZM367.059 88.1164C367.059 84.9155 367.6 81.7885 368.684 78.7354C369.816 75.6331 371.441 72.8262 373.559 70.3147C375.676 67.7541 378.286 65.7351 381.389 64.2578C384.491 62.7312 388.012 61.9679 391.951 61.9679C396.63 61.9679 400.618 63.0513 403.918 65.218C407.266 67.3355 409.728 70.0685 411.304 73.4171L407.242 75.9285C406.109 73.6141 404.681 71.7921 402.957 70.4625C401.234 69.0837 399.387 68.0988 397.418 67.5079C395.497 66.9169 393.577 66.6215 391.656 66.6215C388.504 66.6215 385.722 67.2616 383.309 68.542C380.896 69.7731 378.853 71.4474 377.178 73.5648C375.553 75.6331 374.322 77.9722 373.485 80.5821C372.648 83.1428 372.229 85.7527 372.229 88.4118C372.229 91.3172 372.722 94.0995 373.707 96.7587C374.692 99.4178 376.07 101.782 377.843 103.85C379.616 105.869 381.684 107.494 384.048 108.725C386.461 109.907 389.071 110.498 391.878 110.498C393.847 110.498 395.866 110.153 397.935 109.464C400.003 108.774 401.923 107.715 403.696 106.287C405.518 104.859 406.971 103.013 408.054 100.747L412.338 102.963C411.255 105.573 409.581 107.789 407.316 109.611C405.05 111.433 402.514 112.812 399.707 113.748C396.95 114.683 394.241 115.151 391.582 115.151C387.987 115.151 384.688 114.388 381.684 112.861C378.68 111.286 376.07 109.217 373.854 106.657C371.688 104.047 370.013 101.141 368.832 97.9405C367.65 94.6904 367.059 91.4157 367.059 88.1164ZM442.516 115.077C438.38 115.077 434.883 114.339 432.027 112.861C429.171 111.384 426.906 109.414 425.231 106.952C423.557 104.441 422.326 101.609 421.538 98.4576C420.799 95.306 420.43 92.0559 420.43 88.7073V62.2634H425.527V88.7073C425.527 91.4157 425.798 94.0749 426.339 96.6848C426.93 99.2947 427.866 101.634 429.146 103.702C430.427 105.77 432.15 107.42 434.317 108.651C436.484 109.833 439.192 110.424 442.442 110.424C445.791 110.424 448.548 109.808 450.715 108.577C452.931 107.297 454.655 105.623 455.886 103.554C457.166 101.486 458.077 99.1716 458.619 96.6109C459.16 94.001 459.431 91.3665 459.431 88.7073V62.2634H464.602V88.7073C464.602 92.2036 464.208 95.5522 463.42 98.753C462.632 101.954 461.352 104.761 459.579 107.174C457.855 109.587 455.59 111.507 452.783 112.935C449.976 114.363 446.554 115.077 442.516 115.077ZM476.929 114.708V62.2634H482.099V110.128H512.384V114.708H476.929ZM555.227 110.128V114.708H519.993V62.2634H554.562V66.8431H525.164V85.7527H550.795V90.1107H525.164V110.128H555.227ZM570.175 71.7921V114.708H565.005V62.2634H569.289L603.71 105.992V62.3373H608.881V114.708H604.08L570.175 71.7921ZM659.291 66.8431H640.603V114.708H635.433V66.8431H616.745V62.2634H659.291V66.8431ZM697.801 72.0875C697.063 71.2504 696.201 70.5117 695.216 69.8716C694.231 69.1821 693.123 68.5912 691.892 68.0988C690.661 67.6063 689.332 67.2124 687.903 66.9169C686.525 66.6215 685.047 66.4737 683.472 66.4737C678.892 66.4737 675.519 67.3601 673.352 69.1329C671.234 70.8564 670.176 73.2201 670.176 76.224C670.176 78.2922 670.668 79.9173 671.653 81.0991C672.687 82.281 674.288 83.2412 676.454 83.9799C678.621 84.7186 681.379 85.4818 684.727 86.2697C688.47 87.0576 691.695 87.9933 694.404 89.0766C697.112 90.16 699.205 91.6373 700.682 93.5086C702.16 95.3306 702.898 97.8174 702.898 100.969C702.898 103.382 702.43 105.475 701.495 107.248C700.559 109.02 699.254 110.498 697.58 111.68C695.906 112.861 693.911 113.748 691.597 114.339C689.282 114.88 686.746 115.151 683.989 115.151C681.28 115.151 678.67 114.88 676.159 114.339C673.697 113.748 671.358 112.911 669.142 111.827C666.926 110.695 664.857 109.267 662.937 107.543L665.522 103.333C666.458 104.318 667.566 105.253 668.846 106.14C670.176 106.977 671.628 107.74 673.204 108.429C674.829 109.119 676.553 109.661 678.375 110.054C680.246 110.399 682.167 110.572 684.136 110.572C688.322 110.572 691.572 109.808 693.887 108.282C696.25 106.755 697.432 104.49 697.432 101.486C697.432 99.3193 696.841 97.5958 695.659 96.3155C694.478 94.9859 692.705 93.9025 690.341 93.0654C687.977 92.2282 685.072 91.4157 681.625 90.6278C677.981 89.7907 674.903 88.855 672.392 87.8209C669.88 86.7868 667.984 85.4326 666.704 83.7583C665.473 82.0348 664.857 79.7696 664.857 76.9627C664.857 73.7126 665.645 70.9795 667.221 68.7636C668.846 66.4984 671.062 64.7994 673.869 63.6668C676.676 62.485 679.901 61.8941 683.545 61.8941C685.86 61.8941 688.002 62.1403 689.972 62.6327C691.991 63.0759 693.837 63.7407 695.512 64.6271C697.235 65.5135 698.836 66.6215 700.313 67.951L697.801 72.0875Z" fill="#073749"/>
</svg>
