<svg width="712" height="193" viewBox="0 0 712 193" fill="none" xmlns="http://www.w3.org/2000/svg">
<path fill-rule="evenodd" clip-rule="evenodd" d="M123.361 114.921C140.438 119.274 151.871 135.192 150.822 152.533C133.745 148.181 122.313 132.263 123.361 114.921Z" fill="#073749"/>
<mask id="mask0_1_437" style="mask-type:luminance" maskUnits="userSpaceOnUse" x="110" y="107" width="54" height="53">
<path d="M163.975 107.588H110.413V159.569H163.975V107.588Z" fill="white"/>
<path fill-rule="evenodd" clip-rule="evenodd" d="M123.361 114.921C140.438 119.274 151.871 135.192 150.822 152.533C133.745 148.181 122.313 132.263 123.361 114.921Z" fill="white"/>
</mask>
<g mask="url(#mask0_1_437)">
<path d="M123.361 114.921L124.596 110.076L118.735 108.582L118.37 114.62L123.361 114.921ZM150.822 152.533L149.587 157.378L155.448 158.872L155.813 152.835L150.822 152.533ZM122.126 119.766C136.861 123.522 146.736 137.267 145.831 152.231L155.813 152.835C157.005 133.117 144.015 115.026 124.596 110.076L122.126 119.766ZM152.057 147.688C137.322 143.933 127.447 130.188 128.352 115.223L118.37 114.62C117.178 134.337 130.168 152.429 149.587 157.378L152.057 147.688Z" fill="white"/>
</g>
<path fill-rule="evenodd" clip-rule="evenodd" d="M126.529 110.377C138.463 103.614 153.463 106.387 162.225 116.688C150.29 123.451 135.29 120.678 126.529 110.377Z" fill="#073749"/>
<mask id="mask1_1_437" style="mask-type:luminance" maskUnits="userSpaceOnUse" x="118" y="88" width="53" height="52">
<path d="M170.519 88.2252H118.232V139.617H170.519V88.2252Z" fill="white"/>
<path fill-rule="evenodd" clip-rule="evenodd" d="M126.529 110.377C138.463 103.614 153.463 106.387 162.225 116.688C150.29 123.451 135.29 120.678 126.529 110.377Z" fill="white"/>
</mask>
<g mask="url(#mask1_1_437)">
<path d="M126.529 110.377L124.064 106.027L118.801 109.009L122.72 113.617L126.529 110.377ZM162.225 116.688L164.69 121.038L169.952 118.056L166.033 113.449L162.225 116.688ZM128.994 114.727C138.826 109.156 151.197 111.44 158.416 119.927L166.033 113.449C155.73 101.334 138.1 98.0726 124.064 106.027L128.994 114.727ZM159.759 112.338C149.928 117.91 137.556 115.625 130.337 107.138L122.72 113.617C133.024 125.731 150.653 128.993 164.69 121.038L159.759 112.338Z" fill="white"/>
</g>
<path fill-rule="evenodd" clip-rule="evenodd" d="M157.912 86.4951C152.759 99.2081 139.28 106.351 126.016 103.719C131.169 91.0064 144.648 83.8631 157.912 86.4951Z" fill="#073749"/>
<mask id="mask2_1_437" style="mask-type:luminance" maskUnits="userSpaceOnUse" x="118" y="71" width="48" height="49">
<path d="M165.525 71.1557H118.885V119.67H165.525V71.1557Z" fill="white"/>
<path fill-rule="evenodd" clip-rule="evenodd" d="M157.912 86.4951C152.759 99.2081 139.28 106.351 126.016 103.719C131.169 91.0064 144.648 83.8631 157.912 86.4951Z" fill="white"/>
</mask>
<g mask="url(#mask2_1_437)">
<path d="M157.912 86.4951L162.546 88.3733L164.818 82.768L158.885 81.5907L157.912 86.4951ZM126.016 103.719L121.382 101.841L119.11 107.447L125.043 108.624L126.016 103.719ZM153.278 84.6169C149.033 95.0901 137.918 100.984 126.989 98.815L125.043 108.624C140.642 111.719 156.485 103.326 162.546 88.3733L153.278 84.6169ZM130.65 105.598C134.895 95.1245 146.01 89.2308 156.939 91.3995L158.885 81.5907C143.286 78.4953 127.443 86.8884 121.382 101.841L130.65 105.598Z" fill="white"/>
</g>
<path fill-rule="evenodd" clip-rule="evenodd" d="M109.259 105.803C77.4426 127.02 35.1726 122.342 8.73047 95.4692C40.5471 74.2516 82.8171 78.9305 109.259 105.803Z" fill="#073749"/>
<mask id="mask3_1_437" style="mask-type:luminance" maskUnits="userSpaceOnUse" x="0" y="42" width="118" height="117">
<path d="M117.753 42.5534H0.328178V158.992H117.753V42.5534Z" fill="white"/>
<path fill-rule="evenodd" clip-rule="evenodd" d="M109.259 105.803C77.4426 127.02 35.1726 122.342 8.73047 95.4692C40.5471 74.2516 82.8171 78.9305 109.259 105.803Z" fill="white"/>
</mask>
<g mask="url(#mask3_1_437)">
<path d="M109.259 105.803L112.033 109.963L117.065 106.607L112.823 102.296L109.259 105.803ZM8.73046 95.4692L5.95638 91.3094L0.924446 94.665L5.16652 98.9761L8.73046 95.4692ZM106.485 101.643C76.6793 121.52 37.0667 117.138 12.2944 91.9624L5.16652 98.9761C33.2785 127.545 78.2059 132.521 112.033 109.963L106.485 101.643ZM11.5046 99.6291C41.3104 79.7524 80.923 84.1344 105.695 109.31L112.823 102.296C84.7112 73.7266 39.7837 68.7509 5.95638 91.3094L11.5046 99.6291Z" fill="white"/>
</g>
<path fill-rule="evenodd" clip-rule="evenodd" d="M27.4922 19.9492C71.43 22.588 106.966 56.2527 112.557 99.2839C68.6189 96.6451 33.0833 62.9805 27.4922 19.9492Z" fill="#073749"/>
<mask id="mask4_1_437" style="mask-type:luminance" maskUnits="userSpaceOnUse" x="21" y="13" width="99" height="93">
<path d="M119.508 13.933H21.2622V105.198H119.508V13.933Z" fill="white"/>
<path fill-rule="evenodd" clip-rule="evenodd" d="M27.4922 19.9492C71.43 22.588 106.966 56.2527 112.557 99.2839C68.6189 96.6451 33.0833 62.9805 27.4922 19.9492Z" fill="white"/>
</mask>
<g mask="url(#mask4_1_437)">
<path d="M27.4922 19.9492L27.7919 14.9582L21.7546 14.5956L22.5339 20.5935L27.4922 19.9492ZM112.557 99.2839L112.257 104.275L118.294 104.638L117.515 98.6397L112.557 99.2839ZM27.1924 24.9402C68.7178 27.4342 102.314 59.2579 107.598 99.9282L117.515 98.6397C111.617 53.2475 74.1423 17.7419 27.7919 14.9582L27.1924 24.9402ZM112.856 94.2929C71.3312 91.799 37.7349 59.9753 32.4505 19.305L22.5339 20.5935C28.4317 65.9856 65.9067 101.491 112.257 104.275L112.856 94.2929Z" fill="white"/>
</g>
<path fill-rule="evenodd" clip-rule="evenodd" d="M119.255 97.4461C95.2422 73.8226 91.6822 36.5322 110.104 8.90283C134.116 32.5263 137.676 69.8167 119.255 97.4461Z" fill="#073749"/>
<mask id="mask5_1_437" style="mask-type:luminance" maskUnits="userSpaceOnUse" x="62" y="0" width="107" height="106">
<path d="M168.191 0.435715H62.075V105.998H168.191V0.435715Z" fill="white"/>
<path fill-rule="evenodd" clip-rule="evenodd" d="M119.255 97.4461C95.2422 73.8226 91.6822 36.5322 110.104 8.90283C134.116 32.5263 137.676 69.8167 119.255 97.4461Z" fill="white"/>
</mask>
<g mask="url(#mask5_1_437)">
<path d="M119.255 97.4461L115.748 101.01L120.06 105.252L123.415 100.22L119.255 97.4461ZM110.104 8.90283L113.61 5.33853L109.299 1.09691L105.943 6.12914L110.104 8.90283ZM122.761 93.8818C100.472 71.9532 97.163 37.325 114.264 11.6765L105.943 6.12914C86.2013 35.7394 90.0128 75.6919 115.748 101.01L122.761 93.8818ZM106.597 12.4671C128.887 34.3956 132.195 69.0239 115.095 94.6724L123.415 100.22C143.157 70.6095 139.346 30.657 113.61 5.33853L106.597 12.4671Z" fill="white"/>
</g>
<path fill-rule="evenodd" clip-rule="evenodd" d="M105.932 183.806C92.2721 160.776 97.105 131.394 116.87 113.899C130.53 136.929 125.697 166.31 105.932 183.806Z" fill="#073749"/>
<mask id="mask6_1_437" style="mask-type:luminance" maskUnits="userSpaceOnUse" x="68" y="105" width="87" height="88">
<path d="M154.075 105.535H68.5595V192.134H154.075V105.535Z" fill="white"/>
<path fill-rule="evenodd" clip-rule="evenodd" d="M105.932 183.806C92.2721 160.776 97.105 131.394 116.87 113.899C130.53 136.929 125.697 166.31 105.932 183.806Z" fill="white"/>
</mask>
<g mask="url(#mask6_1_437)">
<path d="M105.932 183.806L101.631 186.356L104.717 191.558L109.246 187.55L105.932 183.806ZM116.87 113.899L121.171 111.348L118.085 106.146L113.556 110.155L116.87 113.899ZM110.232 181.255C97.8055 160.304 102.202 133.56 120.184 117.643L113.556 110.155C92.0083 129.228 86.7387 161.248 101.631 186.356L110.232 181.255ZM112.57 116.45C124.996 137.401 120.6 164.144 102.618 180.062L109.246 187.55C130.794 168.476 136.063 136.457 121.171 111.348L112.57 116.45Z" fill="white"/>
</g>
<path fill-rule="evenodd" clip-rule="evenodd" d="M106.89 110.284C99.7345 120.512 86.3271 124.107 75.0977 119.075C82.2528 108.847 95.6601 105.252 106.89 110.284Z" fill="#228F87"/>
<mask id="mask7_1_437" style="mask-type:luminance" maskUnits="userSpaceOnUse" x="66" y="90" width="49" height="49">
<path d="M114.683 90.3968H66.8402V138.891H114.683V90.3968Z" fill="white"/>
<path fill-rule="evenodd" clip-rule="evenodd" d="M106.89 110.284C99.7345 120.512 86.3271 124.107 75.0977 119.075C82.2528 108.847 95.6601 105.252 106.89 110.284Z" fill="white"/>
</mask>
<g mask="url(#mask7_1_437)">
<path d="M106.89 110.284L110.987 113.15L114.454 108.194L108.934 105.721L106.89 110.284ZM75.0977 119.075L71.0007 116.209L67.5337 121.165L73.0531 123.638L75.0977 119.075ZM102.793 107.418C97.0229 115.665 86.199 118.57 77.1422 114.512L73.0531 123.638C86.4552 129.643 102.446 125.358 110.987 113.15L102.793 107.418ZM79.1946 121.941C84.9643 113.694 95.7883 110.789 104.845 114.847L108.934 105.721C95.532 99.716 79.5412 104.001 71.0007 116.209L79.1946 121.941Z" fill="white"/>
</g>
<path fill-rule="evenodd" clip-rule="evenodd" d="M110.179 114.67C110.744 124.369 104.291 133.033 95.0059 135.38C94.4407 125.681 100.894 117.016 110.179 114.67Z" fill="#34968A"/>
<mask id="mask8_1_437" style="mask-type:luminance" maskUnits="userSpaceOnUse" x="86" y="107" width="33" height="36">
<path d="M118.544 107.896H86.1652V142.031H118.544V107.896Z" fill="white"/>
<path fill-rule="evenodd" clip-rule="evenodd" d="M110.179 114.67C110.744 124.369 104.291 133.033 95.0059 135.38C94.4407 125.681 100.894 117.016 110.179 114.67Z" fill="white"/>
</mask>
<g mask="url(#mask8_1_437)">
<path d="M110.179 114.67L115.171 114.379L114.819 108.34L108.954 109.822L110.179 114.67ZM95.0059 135.38L90.0143 135.671L90.3662 141.709L96.2308 140.228L95.0059 135.38ZM105.188 114.961C105.612 122.247 100.758 128.769 93.7809 130.532L96.2308 140.228C107.824 137.298 115.877 126.49 115.171 114.379L105.188 114.961ZM99.9974 135.089C99.5728 127.803 104.427 121.281 111.404 119.517L108.954 109.822C97.3608 112.752 89.3086 123.559 90.0143 135.671L99.9974 135.089Z" fill="white"/>
</g>
<path fill-rule="evenodd" clip-rule="evenodd" d="M114.408 136.189C110.152 130.803 110.378 123.171 114.805 118.052C119.061 123.438 118.835 131.07 114.408 136.189Z" fill="#459D8D"/>
<mask id="mask9_1_437" style="mask-type:luminance" maskUnits="userSpaceOnUse" x="96" y="109" width="36" height="36">
<path d="M131.852 109.283H96.6433V144.66H131.852V109.283Z" fill="white"/>
<path fill-rule="evenodd" clip-rule="evenodd" d="M114.408 136.189C110.152 130.803 110.378 123.171 114.805 118.052C119.061 123.438 118.835 131.07 114.408 136.189Z" fill="white"/>
</mask>
<g mask="url(#mask9_1_437)">
<path d="M114.408 136.189L110.485 139.289L114.235 144.035L118.191 139.46L114.408 136.189ZM114.805 118.052L118.728 114.952L114.978 110.206L111.022 114.781L114.805 118.052ZM118.331 133.089C115.573 129.599 115.718 124.641 118.587 121.322L111.022 114.781C105.039 121.702 104.73 132.007 110.485 139.289L118.331 133.089ZM110.882 121.152C113.64 124.642 113.495 129.601 110.626 132.919L118.191 139.46C124.174 132.539 124.483 122.235 118.728 114.952L110.882 121.152Z" fill="white"/>
</g>
<path fill-rule="evenodd" clip-rule="evenodd" d="M122.813 101.442C121.254 74.3997 139.262 50.2531 165.156 43.7305C166.715 70.7725 148.707 94.9191 122.813 101.442Z" fill="#14787F"/>
<mask id="mask10_1_437" style="mask-type:luminance" maskUnits="userSpaceOnUse" x="109" y="37" width="69" height="72">
<path d="M177.878 37.0824H109.831V108.644H177.878V37.0824Z" fill="white"/>
<path fill-rule="evenodd" clip-rule="evenodd" d="M122.813 101.442C121.254 74.3997 139.262 50.2531 165.156 43.7305C166.715 70.7725 148.707 94.9191 122.813 101.442Z" fill="white"/>
</mask>
<g mask="url(#mask10_1_437)">
<path d="M122.813 101.442L117.821 101.729L118.169 107.768L124.034 106.29L122.813 101.442ZM165.156 43.7305L170.148 43.4427L169.8 37.4046L163.935 38.8819L165.156 43.7305ZM127.805 101.154C126.385 76.5248 142.792 54.52 166.378 48.579L163.935 38.8819C135.732 45.9861 116.123 72.2746 117.821 101.729L127.805 101.154ZM160.165 44.0183C161.584 68.6474 145.177 90.6521 121.592 96.5932L124.034 106.29C152.237 99.1861 171.846 72.8976 170.148 43.4427L160.165 44.0183Z" fill="white"/>
</g>
<path fill-rule="evenodd" clip-rule="evenodd" d="M210.229 100.334C187.72 121.906 153.124 124.185 128.064 106.391C150.573 84.8191 185.168 82.54 210.229 100.334Z" fill="#2F6C7E"/>
<mask id="mask11_1_437" style="mask-type:luminance" maskUnits="userSpaceOnUse" x="119" y="53" width="100" height="101">
<path d="M218.708 53.7091H119.198V153.474H218.708V53.7091Z" fill="white"/>
<path fill-rule="evenodd" clip-rule="evenodd" d="M210.229 100.334C187.72 121.906 153.124 124.185 128.064 106.391C150.573 84.8191 185.168 82.54 210.229 100.334Z" fill="white"/>
</mask>
<g mask="url(#mask11_1_437)">
<path d="M210.229 100.334L213.688 103.944L218.055 99.7588L213.123 96.2572L210.229 100.334ZM128.064 106.391L124.605 102.782L120.238 106.967L125.169 110.468L128.064 106.391ZM206.769 96.7242C186.005 116.624 154.078 118.73 130.959 102.315L125.169 110.468C152.171 129.641 189.435 127.188 213.688 103.944L206.769 96.7242ZM131.524 110.001C152.287 90.1012 184.215 87.9952 207.334 104.411L213.123 96.2572C186.122 77.0848 148.858 79.537 124.605 102.782L131.524 110.001Z" fill="white"/>
</g>
<path fill-rule="evenodd" clip-rule="evenodd" d="M98.8945 37.0718C118.434 50.7648 125.284 76.399 115.647 97.8555C96.1078 84.1624 89.2578 58.5283 98.8945 37.0718Z" fill="#008080"/>
<mask id="mask12_1_437" style="mask-type:luminance" maskUnits="userSpaceOnUse" x="68" y="28" width="79" height="79">
<path d="M146.273 28.8126H68.0125V106.1H146.273V28.8126Z" fill="white"/>
<path fill-rule="evenodd" clip-rule="evenodd" d="M98.8945 37.0718C118.434 50.7648 125.284 76.399 115.647 97.8555C96.1078 84.1624 89.2578 58.5283 98.8945 37.0718Z" fill="white"/>
</mask>
<g mask="url(#mask12_1_437)">
<path d="M98.8945 37.0718L101.764 32.9772L96.8113 29.5063L94.3334 35.0233L98.8945 37.0718ZM115.647 97.8555L112.778 101.95L117.73 105.421L120.208 99.904L115.647 97.8555ZM96.025 41.1664C113.585 53.4724 119.747 76.5224 111.086 95.807L120.208 99.904C130.82 76.2756 123.283 48.0573 101.764 32.9772L96.025 41.1664ZM118.517 93.7609C100.957 81.4549 94.7944 58.4049 103.456 39.1203L94.3334 35.0233C83.7213 58.6517 91.259 86.87 112.778 101.95L118.517 93.7609Z" fill="white"/>
</g>
<path fill-rule="evenodd" clip-rule="evenodd" d="M109.68 102.598C92.7136 108.162 74.2842 100.771 65.7502 85.3756C82.7164 79.8107 101.146 87.2022 109.68 102.598Z" fill="#0E8683"/>
<mask id="mask13_1_437" style="mask-type:luminance" maskUnits="userSpaceOnUse" x="57" y="64" width="61" height="59">
<path d="M117.804 64.8025H57.9719V122.939H117.804V64.8025Z" fill="white"/>
<path fill-rule="evenodd" clip-rule="evenodd" d="M109.68 102.598C92.7136 108.162 74.2842 100.771 65.7502 85.3756C82.7164 79.8107 101.146 87.2022 109.68 102.598Z" fill="white"/>
</mask>
<g mask="url(#mask13_1_437)">
<path d="M109.68 102.598L111.238 107.348L116.985 105.463L114.053 100.173L109.68 102.598ZM65.7502 85.3756L64.1919 80.6246L58.4448 82.5096L61.3772 87.7996L65.7502 85.3756ZM108.121 97.8465C93.4517 102.658 77.503 96.2645 70.1233 82.9515L61.3772 87.7996C71.0653 105.277 91.9755 113.667 111.238 107.348L108.121 97.8465ZM67.3085 90.1265C81.9782 85.3149 97.927 91.7085 105.307 105.022L114.053 100.173C104.365 82.6959 83.4545 74.3065 64.1919 80.6246L67.3085 90.1265Z" fill="white"/>
</g>
<path fill-rule="evenodd" clip-rule="evenodd" d="M123.361 114.921C140.438 119.274 151.871 135.192 150.822 152.533C133.745 148.181 122.313 132.263 123.361 114.921Z" fill="#073749"/>
<path fill-rule="evenodd" clip-rule="evenodd" d="M126.529 110.377C138.463 103.614 153.463 106.387 162.225 116.688C150.29 123.451 135.29 120.678 126.529 110.377Z" fill="#073749"/>
<path fill-rule="evenodd" clip-rule="evenodd" d="M157.912 86.4951C152.759 99.2081 139.28 106.351 126.016 103.719C131.169 91.0064 144.648 83.8631 157.912 86.4951Z" fill="#073749"/>
<path fill-rule="evenodd" clip-rule="evenodd" d="M109.259 105.803C77.4426 127.02 35.1726 122.342 8.73047 95.4692C40.5471 74.2516 82.8171 78.9305 109.259 105.803Z" fill="#073749"/>
<path fill-rule="evenodd" clip-rule="evenodd" d="M27.4922 19.9492C71.43 22.588 106.966 56.2527 112.557 99.2839C68.6189 96.6451 33.0833 62.9805 27.4922 19.9492Z" fill="#073749"/>
<path fill-rule="evenodd" clip-rule="evenodd" d="M119.255 97.4461C95.2422 73.8226 91.6822 36.5322 110.104 8.90283C134.116 32.5263 137.676 69.8167 119.255 97.4461Z" fill="#073749"/>
<path fill-rule="evenodd" clip-rule="evenodd" d="M105.932 183.806C92.2721 160.776 97.105 131.394 116.87 113.899C130.53 136.929 125.697 166.31 105.932 183.806Z" fill="#073749"/>
<path fill-rule="evenodd" clip-rule="evenodd" d="M106.89 110.284C99.7345 120.512 86.3271 124.107 75.0977 119.075C82.2528 108.847 95.6601 105.252 106.89 110.284Z" fill="#228F87"/>
<path fill-rule="evenodd" clip-rule="evenodd" d="M110.179 114.67C110.744 124.369 104.291 133.033 95.0059 135.38C94.4407 125.681 100.894 117.016 110.179 114.67Z" fill="#34968A"/>
<path fill-rule="evenodd" clip-rule="evenodd" d="M114.408 136.189C110.152 130.803 110.378 123.171 114.805 118.052C119.061 123.438 118.835 131.07 114.408 136.189Z" fill="#459D8D"/>
<path fill-rule="evenodd" clip-rule="evenodd" d="M122.813 101.442C121.254 74.3997 139.262 50.2531 165.156 43.7305C166.715 70.7725 148.707 94.9191 122.813 101.442Z" fill="#14787F"/>
<path fill-rule="evenodd" clip-rule="evenodd" d="M210.229 100.334C187.72 121.906 153.124 124.185 128.064 106.391C150.573 84.8191 185.168 82.54 210.229 100.334Z" fill="#2F6C7E"/>
<path fill-rule="evenodd" clip-rule="evenodd" d="M98.8945 37.0718C118.434 50.7648 125.284 76.399 115.647 97.8555C96.1078 84.1624 89.2578 58.5283 98.8945 37.0718Z" fill="#008080"/>
<path fill-rule="evenodd" clip-rule="evenodd" d="M109.68 102.598C92.7136 108.162 74.2842 100.771 65.7502 85.3756C82.7164 79.8107 101.146 87.2022 109.68 102.598Z" fill="#0E8683"/>
<rect x="111" y="103.5" width="12" height="8" fill="white"/>
<path d="M258.939 81.367C258.348 80.6776 257.56 80.0128 256.575 79.3726C255.59 78.7325 254.482 78.1662 253.251 77.6737C252.02 77.132 250.666 76.7135 249.188 76.418C247.76 76.0733 246.258 75.9009 244.683 75.9009C240.645 75.9009 237.665 76.6642 235.745 78.1908C233.824 79.7173 232.864 81.8102 232.864 84.4694C232.864 86.3406 233.357 87.8179 234.341 88.9013C235.326 89.9847 236.828 90.871 238.847 91.5605C240.915 92.2499 243.525 92.9639 246.677 93.7026C250.321 94.4905 253.473 95.4507 256.132 96.5833C258.791 97.7159 260.835 99.2425 262.263 101.163C263.691 103.034 264.405 105.546 264.405 108.697C264.405 111.209 263.912 113.4 262.927 115.272C261.992 117.094 260.662 118.62 258.939 119.851C257.215 121.033 255.196 121.919 252.882 122.51C250.567 123.052 248.056 123.323 245.347 123.323C242.688 123.323 240.078 123.052 237.518 122.51C235.006 121.919 232.618 121.082 230.353 119.999C228.087 118.916 225.97 117.561 224 115.936L227.176 110.323C227.964 111.16 228.974 111.997 230.205 112.834C231.485 113.622 232.913 114.361 234.489 115.05C236.114 115.739 237.862 116.306 239.734 116.749C241.605 117.143 243.525 117.34 245.495 117.34C249.238 117.34 252.143 116.675 254.211 115.345C256.28 113.967 257.314 111.972 257.314 109.362C257.314 107.392 256.723 105.817 255.541 104.635C254.408 103.453 252.709 102.468 250.444 101.68C248.179 100.892 245.421 100.104 242.171 99.3164C238.626 98.43 235.646 97.4697 233.233 96.4356C230.82 95.3522 228.998 93.9488 227.767 92.2252C226.586 90.5017 225.995 88.2611 225.995 85.5035C225.995 82.1549 226.807 79.3234 228.432 77.0089C230.057 74.6945 232.298 72.9463 235.154 71.7645C238.01 70.5826 241.236 69.9917 244.83 69.9917C247.194 69.9917 249.385 70.2379 251.404 70.7303C253.473 71.2228 255.393 71.9122 257.166 72.7986C258.939 73.685 260.564 74.7437 262.041 75.9748L258.939 81.367ZM294.791 123.175C290.605 123.175 287.085 122.461 284.228 121.033C281.372 119.556 279.082 117.586 277.359 115.124C275.635 112.612 274.38 109.781 273.592 106.629C272.804 103.478 272.41 100.227 272.41 96.8788V70.361H279.058V96.8788C279.058 99.4395 279.304 101.951 279.796 104.413C280.338 106.826 281.2 108.993 282.382 110.913C283.564 112.834 285.164 114.361 287.183 115.493C289.202 116.626 291.713 117.192 294.717 117.192C297.77 117.192 300.307 116.626 302.326 115.493C304.345 114.311 305.945 112.76 307.127 110.84C308.309 108.87 309.146 106.678 309.638 104.265C310.18 101.852 310.451 99.3902 310.451 96.8788V70.361H317.099V96.8788C317.099 100.424 316.68 103.797 315.843 106.998C315.055 110.15 313.775 112.932 312.002 115.345C310.229 117.758 307.915 119.679 305.059 121.107C302.252 122.486 298.829 123.175 294.791 123.175ZM325.511 96.214C325.511 93.0132 326.052 89.8862 327.136 86.8331C328.268 83.7307 329.893 80.9238 332.011 78.4124C334.178 75.8517 336.812 73.8327 339.914 72.3554C343.017 70.8288 346.538 70.0656 350.477 70.0656C355.155 70.0656 359.169 71.1489 362.517 73.3156C365.866 75.4331 368.353 78.1662 369.978 81.5147L364.733 84.9126C363.699 82.6966 362.37 80.9484 360.745 79.6681C359.169 78.3385 357.445 77.4029 355.574 76.8612C353.752 76.3195 351.955 76.0487 350.182 76.0487C347.276 76.0487 344.691 76.6396 342.426 77.8214C340.21 79.0033 338.339 80.5791 336.812 82.5488C335.286 84.5186 334.128 86.7346 333.34 89.1968C332.602 91.6097 332.232 94.0473 332.232 96.5095C332.232 99.2179 332.676 101.828 333.562 104.339C334.498 106.851 335.778 109.067 337.403 110.987C339.028 112.908 340.949 114.434 343.165 115.567C345.381 116.7 347.793 117.266 350.403 117.266C352.225 117.266 354.097 116.946 356.017 116.306C357.938 115.665 359.735 114.681 361.409 113.351C363.084 111.972 364.413 110.199 365.398 108.032L370.938 111.061C369.855 113.671 368.18 115.887 365.915 117.709C363.65 119.531 361.114 120.91 358.307 121.846C355.549 122.781 352.816 123.249 350.108 123.249C346.513 123.249 343.214 122.486 340.21 120.959C337.206 119.383 334.596 117.315 332.38 114.754C330.213 112.145 328.515 109.239 327.283 106.038C326.102 102.788 325.511 99.5133 325.511 96.214ZM375.283 96.214C375.283 93.0132 375.825 89.8862 376.908 86.8331C378.041 83.7307 379.666 80.9238 381.784 78.4124C383.95 75.8517 386.585 73.8327 389.687 72.3554C392.79 70.8288 396.311 70.0656 400.25 70.0656C404.928 70.0656 408.942 71.1489 412.29 73.3156C415.639 75.4331 418.126 78.1662 419.751 81.5147L414.506 84.9126C413.472 82.6966 412.142 80.9484 410.517 79.6681C408.942 78.3385 407.218 77.4029 405.347 76.8612C403.525 76.3195 401.727 76.0487 399.955 76.0487C397.049 76.0487 394.464 76.6396 392.199 77.8214C389.983 79.0033 388.111 80.5791 386.585 82.5488C385.058 84.5186 383.901 86.7346 383.113 89.1968C382.375 91.6097 382.005 94.0473 382.005 96.5095C382.005 99.2179 382.448 101.828 383.335 104.339C384.27 106.851 385.551 109.067 387.176 110.987C388.801 112.908 390.721 114.434 392.937 115.567C395.153 116.7 397.566 117.266 400.176 117.266C401.998 117.266 403.869 116.946 405.79 116.306C407.71 115.665 409.508 114.681 411.182 113.351C412.856 111.972 414.186 110.199 415.171 108.032L420.711 111.061C419.627 113.671 417.953 115.887 415.688 117.709C413.423 119.531 410.887 120.91 408.08 121.846C405.322 122.781 402.589 123.249 399.881 123.249C396.286 123.249 392.987 122.486 389.983 120.959C386.979 119.383 384.369 117.315 382.153 114.754C379.986 112.145 378.287 109.239 377.056 106.038C375.874 102.788 375.283 99.5133 375.283 96.214ZM450.674 123.175C446.488 123.175 442.967 122.461 440.111 121.033C437.255 119.556 434.965 117.586 433.241 115.124C431.518 112.612 430.262 109.781 429.474 106.629C428.686 103.478 428.292 100.227 428.292 96.8788V70.361H434.94V96.8788C434.94 99.4395 435.187 101.951 435.679 104.413C436.221 106.826 437.082 108.993 438.264 110.913C439.446 112.834 441.047 114.361 443.066 115.493C445.085 116.626 447.596 117.192 450.6 117.192C453.653 117.192 456.189 116.626 458.208 115.493C460.227 114.311 461.827 112.76 463.009 110.84C464.191 108.87 465.028 106.678 465.521 104.265C466.062 101.852 466.333 99.3902 466.333 96.8788V70.361H472.981V96.8788C472.981 100.424 472.563 103.797 471.725 106.998C470.938 110.15 469.657 112.932 467.884 115.345C466.112 117.758 463.797 119.679 460.941 121.107C458.134 122.486 454.712 123.175 450.674 123.175ZM484.791 122.806V70.361H491.439V116.897H520.69V122.806H484.791ZM563.531 116.897V122.806H527.927V70.361H562.866V76.2703H534.575V93.2594H559.173V98.7993H534.575V116.897H563.531ZM579.299 82.6227V122.806H572.651V70.361H578.265L610.322 111.357V70.4349H616.97V122.806H610.913L579.299 82.6227ZM667.312 76.2703H649.215V122.806H642.567V76.2703H624.47V70.361H667.312V76.2703ZM705.667 81.367C705.076 80.6776 704.288 80.0128 703.303 79.3726C702.319 78.7325 701.211 78.1662 699.98 77.6737C698.748 77.132 697.394 76.7135 695.917 76.418C694.489 76.0733 692.987 75.9009 691.411 75.9009C687.373 75.9009 684.394 76.6642 682.473 78.1908C680.553 79.7173 679.593 81.8102 679.593 84.4694C679.593 86.3406 680.085 87.8179 681.07 88.9013C682.055 89.9847 683.557 90.871 685.576 91.5605C687.644 92.2499 690.254 92.9639 693.405 93.7026C697.05 94.4905 700.201 95.4507 702.86 96.5833C705.519 97.7159 707.563 99.2425 708.991 101.163C710.419 103.034 711.133 105.546 711.133 108.697C711.133 111.209 710.641 113.4 709.656 115.272C708.72 117.094 707.391 118.62 705.667 119.851C703.944 121.033 701.925 121.919 699.61 122.51C697.296 123.052 694.784 123.323 692.076 123.323C689.417 123.323 686.807 123.052 684.246 122.51C681.735 121.919 679.346 121.082 677.081 119.999C674.816 118.916 672.698 117.561 670.729 115.936L673.905 110.323C674.693 111.16 675.702 111.997 676.933 112.834C678.214 113.622 679.642 114.361 681.218 115.05C682.843 115.739 684.591 116.306 686.462 116.749C688.333 117.143 690.254 117.34 692.224 117.34C695.966 117.34 698.872 116.675 700.94 115.345C703.008 113.967 704.042 111.972 704.042 109.362C704.042 107.392 703.451 105.817 702.269 104.635C701.137 103.453 699.438 102.468 697.173 101.68C694.907 100.892 692.15 100.104 688.9 99.3164C685.354 98.43 682.375 97.4697 679.962 96.4356C677.549 95.3522 675.727 93.9488 674.496 92.2252C673.314 90.5017 672.723 88.2611 672.723 85.5035C672.723 82.1549 673.536 79.3234 675.161 77.0089C676.786 74.6945 679.026 72.9463 681.882 71.7645C684.739 70.5826 687.964 69.9917 691.559 69.9917C693.923 69.9917 696.114 70.2379 698.133 70.7303C700.201 71.2228 702.122 71.9122 703.894 72.7986C705.667 73.685 707.292 74.7437 708.77 75.9748L705.667 81.367Z" fill="white"/>
</svg>
