<svg width="705" height="175" viewBox="0 0 705 175" fill="none" xmlns="http://www.w3.org/2000/svg">
<path fill-rule="evenodd" clip-rule="evenodd" d="M114.63 106.018C131.708 110.371 143.14 126.289 142.092 143.63C125.015 139.278 113.582 123.36 114.63 106.018Z" fill="#073749"/>
<path fill-rule="evenodd" clip-rule="evenodd" d="M117.798 101.474C129.733 94.7114 144.733 97.4843 153.494 107.785C141.56 114.548 126.56 111.775 117.798 101.474Z" fill="#073749"/>
<path fill-rule="evenodd" clip-rule="evenodd" d="M149.182 77.5923C144.029 90.3053 130.55 97.4486 117.285 94.8166C122.438 82.1036 135.917 74.9602 149.182 77.5923Z" fill="#073749"/>
<path fill-rule="evenodd" clip-rule="evenodd" d="M100.529 96.9C68.7121 118.118 26.4421 113.439 0 86.5664C31.8166 65.3488 74.0866 70.0277 100.529 96.9Z" fill="#073749"/>
<path fill-rule="evenodd" clip-rule="evenodd" d="M18.7617 11.0464C62.6995 13.6852 98.2352 47.3499 103.826 90.3811C59.8884 87.7423 24.3528 54.0776 18.7617 11.0464Z" fill="#073749"/>
<path fill-rule="evenodd" clip-rule="evenodd" d="M110.524 88.5432C86.5117 64.9198 82.9517 27.6293 101.373 0C125.386 23.6235 128.946 60.9139 110.524 88.5432Z" fill="#073749"/>
<path fill-rule="evenodd" clip-rule="evenodd" d="M97.2012 174.903C83.5417 151.873 88.3745 122.492 108.14 104.996C121.799 128.026 116.966 157.407 97.2012 174.903Z" fill="#073749"/>
<path fill-rule="evenodd" clip-rule="evenodd" d="M98.1591 101.381C91.004 111.609 77.5966 115.204 66.3672 110.172C73.5223 99.9446 86.9297 96.3496 98.1591 101.381Z" fill="#228F87"/>
<path fill-rule="evenodd" clip-rule="evenodd" d="M101.449 105.766C102.014 115.465 95.5609 124.13 86.2754 126.477C85.7102 116.778 92.1633 108.113 101.449 105.766Z" fill="#34968A"/>
<path fill-rule="evenodd" clip-rule="evenodd" d="M105.678 127.287C101.421 121.9 101.648 114.269 106.074 109.149C110.331 114.535 110.104 122.167 105.678 127.287Z" fill="#459D8D"/>
<path fill-rule="evenodd" clip-rule="evenodd" d="M114.082 92.5389C112.523 65.4968 130.532 41.3502 156.426 34.8276C157.985 61.8697 139.976 86.0163 114.082 92.5389Z" fill="#14787F"/>
<path fill-rule="evenodd" clip-rule="evenodd" d="M201.498 91.4312C178.99 113.003 144.394 115.283 119.334 97.4886C141.842 75.9162 176.438 73.6372 201.498 91.4312Z" fill="#2F6C7E"/>
<path fill-rule="evenodd" clip-rule="evenodd" d="M90.1641 28.1689C109.703 41.862 116.553 67.4962 106.917 88.9527C87.3774 75.2596 80.5274 49.6254 90.1641 28.1689Z" fill="#008080"/>
<path fill-rule="evenodd" clip-rule="evenodd" d="M100.949 93.6946C83.9829 99.2595 65.5535 91.868 57.0195 76.4727C73.9856 70.9078 92.4151 78.2993 100.949 93.6946Z" fill="#0E8683"/>
<path fill-rule="evenodd" clip-rule="evenodd" d="M114.63 106.018C131.708 110.371 143.14 126.289 142.092 143.63C125.015 139.278 113.582 123.36 114.63 106.018Z" fill="#073749"/>
<path fill-rule="evenodd" clip-rule="evenodd" d="M117.798 101.474C129.733 94.7114 144.733 97.4843 153.494 107.785C141.56 114.548 126.56 111.775 117.798 101.474Z" fill="#073749"/>
<path fill-rule="evenodd" clip-rule="evenodd" d="M149.182 77.5923C144.029 90.3053 130.55 97.4486 117.285 94.8166C122.438 82.1036 135.917 74.9602 149.182 77.5923Z" fill="#073749"/>
<path fill-rule="evenodd" clip-rule="evenodd" d="M100.529 96.9C68.7121 118.118 26.4421 113.439 0 86.5664C31.8166 65.3488 74.0866 70.0277 100.529 96.9Z" fill="#073749"/>
<path fill-rule="evenodd" clip-rule="evenodd" d="M18.7617 11.0464C62.6995 13.6852 98.2352 47.3499 103.826 90.3811C59.8884 87.7423 24.3528 54.0776 18.7617 11.0464Z" fill="#073749"/>
<path fill-rule="evenodd" clip-rule="evenodd" d="M110.524 88.5432C86.5117 64.9198 82.9517 27.6293 101.373 0C125.386 23.6235 128.946 60.9139 110.524 88.5432Z" fill="#073749"/>
<path fill-rule="evenodd" clip-rule="evenodd" d="M97.2012 174.903C83.5417 151.873 88.3745 122.492 108.14 104.996C121.799 128.026 116.966 157.407 97.2012 174.903Z" fill="#073749"/>
<path fill-rule="evenodd" clip-rule="evenodd" d="M98.1591 101.381C91.004 111.609 77.5966 115.204 66.3672 110.172C73.5223 99.9446 86.9297 96.3496 98.1591 101.381Z" fill="#228F87"/>
<path fill-rule="evenodd" clip-rule="evenodd" d="M101.449 105.766C102.014 115.465 95.5609 124.13 86.2754 126.477C85.7102 116.778 92.1633 108.113 101.449 105.766Z" fill="#34968A"/>
<path fill-rule="evenodd" clip-rule="evenodd" d="M105.678 127.287C101.421 121.9 101.648 114.269 106.074 109.149C110.331 114.535 110.104 122.167 105.678 127.287Z" fill="#459D8D"/>
<path fill-rule="evenodd" clip-rule="evenodd" d="M114.082 92.5389C112.523 65.4968 130.532 41.3502 156.426 34.8276C157.985 61.8697 139.976 86.0163 114.082 92.5389Z" fill="#14787F"/>
<path fill-rule="evenodd" clip-rule="evenodd" d="M201.498 91.4312C178.99 113.003 144.394 115.283 119.334 97.4886C141.842 75.9162 176.438 73.6372 201.498 91.4312Z" fill="#2F6C7E"/>
<path fill-rule="evenodd" clip-rule="evenodd" d="M90.1641 28.1689C109.703 41.862 116.553 67.4962 106.917 88.9527C87.3774 75.2596 80.5274 49.6254 90.1641 28.1689Z" fill="#008080"/>
<path fill-rule="evenodd" clip-rule="evenodd" d="M100.949 93.6946C83.9829 99.2595 65.5535 91.868 57.0195 76.4727C73.9856 70.9078 92.4151 78.2993 100.949 93.6946Z" fill="#0E8683"/>
<path d="M249.618 72.4642C249.027 71.7748 248.239 71.11 247.254 70.4698C246.269 69.8297 245.161 69.2634 243.93 68.7709C242.699 68.2292 241.345 67.8107 239.867 67.5152C238.439 67.1705 236.937 66.9981 235.362 66.9981C231.324 66.9981 228.344 67.7614 226.424 69.288C224.503 70.8145 223.543 72.9074 223.543 75.5666C223.543 77.4378 224.036 78.9151 225.02 79.9985C226.005 81.0819 227.507 81.9682 229.526 82.6577C231.594 83.3471 234.204 84.0611 237.356 84.7998C241 85.5877 244.152 86.5479 246.811 87.6805C249.47 88.8131 251.514 90.3397 252.942 92.2602C254.37 94.1315 255.084 96.6429 255.084 99.7945C255.084 102.306 254.591 104.497 253.606 106.369C252.671 108.191 251.341 109.717 249.618 110.948C247.894 112.13 245.875 113.016 243.561 113.607C241.246 114.149 238.735 114.42 236.026 114.42C233.367 114.42 230.757 114.149 228.197 113.607C225.685 113.016 223.297 112.179 221.032 111.096C218.766 110.013 216.649 108.658 214.679 107.033L217.855 101.42C218.643 102.257 219.653 103.094 220.884 103.931C222.164 104.719 223.592 105.458 225.168 106.147C226.793 106.836 228.541 107.403 230.413 107.846C232.284 108.24 234.204 108.437 236.174 108.437C239.917 108.437 242.822 107.772 244.89 106.442C246.959 105.064 247.993 103.069 247.993 100.459C247.993 98.4895 247.402 96.9137 246.22 95.7319C245.087 94.55 243.388 93.5652 241.123 92.7773C238.858 91.9894 236.1 91.2015 232.85 90.4136C229.305 89.5272 226.325 88.5669 223.912 87.5328C221.499 86.4494 219.677 85.046 218.446 83.3224C217.265 81.5989 216.674 79.3583 216.674 76.6007C216.674 73.2521 217.486 70.4206 219.111 68.1061C220.736 65.7917 222.977 64.0435 225.833 62.8617C228.689 61.6798 231.915 61.0889 235.509 61.0889C237.873 61.0889 240.064 61.3351 242.083 61.8275C244.152 62.32 246.072 63.0094 247.845 63.8958C249.618 64.7822 251.243 65.8409 252.72 67.072L249.618 72.4642ZM285.47 114.272C281.284 114.272 277.764 113.558 274.907 112.13C272.051 110.653 269.761 108.683 268.038 106.221C266.314 103.709 265.059 100.878 264.271 97.7263C263.483 94.5747 263.089 91.3246 263.089 87.976V61.4582H269.737V87.976C269.737 90.5367 269.983 93.0481 270.475 95.5103C271.017 97.9232 271.879 100.09 273.061 102.01C274.243 103.931 275.843 105.458 277.862 106.59C279.881 107.723 282.392 108.289 285.396 108.289C288.449 108.289 290.986 107.723 293.005 106.59C295.024 105.408 296.624 103.857 297.806 101.937C298.988 99.9668 299.825 97.7755 300.317 95.3626C300.859 92.9496 301.13 90.4874 301.13 87.976V61.4582H307.778V87.976C307.778 91.5215 307.359 94.8947 306.522 98.0956C305.734 101.247 304.454 104.029 302.681 106.442C300.908 108.855 298.594 110.776 295.738 112.204C292.931 113.583 289.508 114.272 285.47 114.272ZM316.19 87.3112C316.19 84.1104 316.731 80.9834 317.815 77.9303C318.947 74.8279 320.572 72.021 322.69 69.5096C324.857 66.9489 327.491 64.9299 330.593 63.4526C333.696 61.926 337.217 61.1628 341.156 61.1628C345.834 61.1628 349.848 62.2461 353.196 64.4128C356.545 66.5303 359.032 69.2634 360.657 72.6119L355.412 76.0098C354.378 73.7938 353.049 72.0456 351.424 70.7653C349.848 69.4357 348.124 68.5001 346.253 67.9584C344.431 67.4167 342.634 67.1459 340.861 67.1459C337.955 67.1459 335.37 67.7368 333.105 68.9186C330.889 70.1005 329.018 71.6763 327.491 73.646C325.965 75.6158 324.807 77.8318 324.019 80.294C323.281 82.7069 322.911 85.1445 322.911 87.6067C322.911 90.3151 323.355 92.925 324.241 95.4364C325.177 97.9478 326.457 100.164 328.082 102.084C329.707 104.005 331.628 105.531 333.844 106.664C336.06 107.797 338.472 108.363 341.082 108.363C342.904 108.363 344.776 108.043 346.696 107.403C348.617 106.762 350.414 105.778 352.088 104.448C353.763 103.069 355.092 101.296 356.077 99.1297L361.617 102.158C360.534 104.768 358.859 106.984 356.594 108.806C354.329 110.628 351.793 112.007 348.986 112.943C346.228 113.878 343.495 114.346 340.787 114.346C337.192 114.346 333.893 113.583 330.889 112.056C327.885 110.48 325.275 108.412 323.059 105.851C320.892 103.242 319.194 100.336 317.962 97.1353C316.781 93.8852 316.19 90.6105 316.19 87.3112ZM365.962 87.3112C365.962 84.1104 366.504 80.9834 367.587 77.9303C368.72 74.8279 370.345 72.021 372.463 69.5096C374.629 66.9489 377.264 64.9299 380.366 63.4526C383.469 61.926 386.99 61.1628 390.929 61.1628C395.607 61.1628 399.621 62.2461 402.969 64.4128C406.318 66.5303 408.805 69.2634 410.43 72.6119L405.185 76.0098C404.151 73.7938 402.821 72.0456 401.196 70.7653C399.621 69.4357 397.897 68.5001 396.026 67.9584C394.204 67.4167 392.406 67.1459 390.634 67.1459C387.728 67.1459 385.143 67.7368 382.878 68.9186C380.662 70.1005 378.79 71.6763 377.264 73.646C375.737 75.6158 374.58 77.8318 373.792 80.294C373.054 82.7069 372.684 85.1445 372.684 87.6067C372.684 90.3151 373.127 92.925 374.014 95.4364C374.949 97.9478 376.23 100.164 377.855 102.084C379.48 104.005 381.4 105.531 383.616 106.664C385.832 107.797 388.245 108.363 390.855 108.363C392.677 108.363 394.548 108.043 396.469 107.403C398.389 106.762 400.187 105.778 401.861 104.448C403.535 103.069 404.865 101.296 405.85 99.1297L411.39 102.158C410.306 104.768 408.632 106.984 406.367 108.806C404.102 110.628 401.566 112.007 398.759 112.943C396.001 113.878 393.268 114.346 390.56 114.346C386.965 114.346 383.666 113.583 380.662 112.056C377.658 110.48 375.048 108.412 372.832 105.851C370.665 103.242 368.966 100.336 367.735 97.1353C366.553 93.8852 365.962 90.6105 365.962 87.3112ZM441.353 114.272C437.167 114.272 433.646 113.558 430.79 112.13C427.934 110.653 425.644 108.683 423.92 106.221C422.197 103.709 420.941 100.878 420.153 97.7263C419.365 94.5747 418.971 91.3246 418.971 87.976V61.4582H425.619V87.976C425.619 90.5367 425.866 93.0481 426.358 95.5103C426.9 97.9232 427.761 100.09 428.943 102.01C430.125 103.931 431.726 105.458 433.745 106.59C435.764 107.723 438.275 108.289 441.279 108.289C444.332 108.289 446.868 107.723 448.887 106.59C450.906 105.408 452.506 103.857 453.688 101.937C454.87 99.9668 455.707 97.7755 456.2 95.3626C456.741 92.9496 457.012 90.4874 457.012 87.976V61.4582H463.66V87.976C463.66 91.5215 463.242 94.8947 462.404 98.0956C461.617 101.247 460.336 104.029 458.563 106.442C456.791 108.855 454.476 110.776 451.62 112.204C448.813 113.583 445.391 114.272 441.353 114.272ZM475.47 113.903V61.4582H482.118V107.994H511.369V113.903H475.47ZM554.21 107.994V113.903H518.606V61.4582H553.545V67.3675H525.254V84.3566H549.852V89.8965H525.254V107.994H554.21ZM569.978 73.7199V113.903H563.33V61.4582H568.944L601.001 102.454V61.5321H607.649V113.903H601.592L569.978 73.7199ZM657.991 67.3675H639.894V113.903H633.246V67.3675H615.149V61.4582H657.991V67.3675ZM696.346 72.4642C695.755 71.7748 694.967 71.11 693.982 70.4698C692.998 69.8297 691.89 69.2634 690.659 68.7709C689.427 68.2292 688.073 67.8107 686.596 67.5152C685.168 67.1705 683.666 66.9981 682.09 66.9981C678.052 66.9981 675.073 67.7614 673.152 69.288C671.232 70.8145 670.272 72.9074 670.272 75.5666C670.272 77.4378 670.764 78.9151 671.749 79.9985C672.734 81.0819 674.236 81.9682 676.255 82.6577C678.323 83.3471 680.933 84.0611 684.084 84.7998C687.729 85.5877 690.88 86.5479 693.539 87.6805C696.198 88.8131 698.242 90.3397 699.67 92.2602C701.098 94.1315 701.812 96.6429 701.812 99.7945C701.812 102.306 701.32 104.497 700.335 106.369C699.399 108.191 698.07 109.717 696.346 110.948C694.623 112.13 692.604 113.016 690.289 113.607C687.975 114.149 685.463 114.42 682.755 114.42C680.096 114.42 677.486 114.149 674.925 113.607C672.414 113.016 670.025 112.179 667.76 111.096C665.495 110.013 663.377 108.658 661.408 107.033L664.584 101.42C665.372 102.257 666.381 103.094 667.612 103.931C668.893 104.719 670.321 105.458 671.897 106.147C673.522 106.836 675.27 107.403 677.141 107.846C679.012 108.24 680.933 108.437 682.903 108.437C686.645 108.437 689.551 107.772 691.619 106.442C693.687 105.064 694.721 103.069 694.721 100.459C694.721 98.4895 694.13 96.9137 692.948 95.7319C691.816 94.55 690.117 93.5652 687.852 92.7773C685.586 91.9894 682.829 91.2015 679.579 90.4136C676.033 89.5272 673.054 88.5669 670.641 87.5328C668.228 86.4494 666.406 85.046 665.175 83.3224C663.993 81.5989 663.402 79.3583 663.402 76.6007C663.402 73.2521 664.215 70.4206 665.84 68.1061C667.465 65.7917 669.705 64.0435 672.561 62.8617C675.418 61.6798 678.643 61.0889 682.238 61.0889C684.602 61.0889 686.793 61.3351 688.812 61.8275C690.88 62.32 692.801 63.0094 694.573 63.8958C696.346 64.7822 697.971 65.8409 699.449 67.072L696.346 72.4642Z" fill="white"/>
</svg>
