<svg width="755" height="191" viewBox="0 0 755 191" fill="none" xmlns="http://www.w3.org/2000/svg">
<g clip-path="url(#clip0_1_229)">
<path fill-rule="evenodd" clip-rule="evenodd" d="M123.361 113.921C140.438 118.274 151.871 134.192 150.822 151.533C133.745 147.181 122.313 131.263 123.361 113.921Z" fill="#073749"/>
<mask id="mask0_1_229" style="mask-type:luminance" maskUnits="userSpaceOnUse" x="110" y="106" width="54" height="53">
<path d="M163.975 106.588H110.413V158.569H163.975V106.588Z" fill="white"/>
<path fill-rule="evenodd" clip-rule="evenodd" d="M123.361 113.921C140.438 118.274 151.871 134.192 150.822 151.533C133.745 147.181 122.313 131.263 123.361 113.921Z" fill="white"/>
</mask>
<g mask="url(#mask0_1_229)">
<path d="M123.361 113.921L124.596 109.076L118.735 107.582L118.37 113.62L123.361 113.921ZM150.822 151.533L149.587 156.378L155.448 157.872L155.813 151.835L150.822 151.533ZM122.126 118.766C136.861 122.522 146.736 136.267 145.831 151.231L155.813 151.835C157.005 132.117 144.015 114.026 124.596 109.076L122.126 118.766ZM152.057 146.688C137.322 142.933 127.447 129.188 128.352 114.223L118.37 113.62C117.178 133.337 130.168 151.429 149.587 156.378L152.057 146.688Z" fill="white"/>
</g>
<path fill-rule="evenodd" clip-rule="evenodd" d="M126.529 109.377C138.463 102.614 153.463 105.387 162.225 115.688C150.29 122.451 135.29 119.678 126.529 109.377Z" fill="#073749"/>
<mask id="mask1_1_229" style="mask-type:luminance" maskUnits="userSpaceOnUse" x="118" y="87" width="53" height="52">
<path d="M170.519 87.2252H118.232V138.617H170.519V87.2252Z" fill="white"/>
<path fill-rule="evenodd" clip-rule="evenodd" d="M126.529 109.377C138.463 102.614 153.463 105.387 162.225 115.688C150.29 122.451 135.29 119.678 126.529 109.377Z" fill="white"/>
</mask>
<g mask="url(#mask1_1_229)">
<path d="M126.529 109.377L124.064 105.027L118.801 108.009L122.72 112.617L126.529 109.377ZM162.225 115.688L164.69 120.038L169.952 117.056L166.033 112.449L162.225 115.688ZM128.994 113.727C138.826 108.156 151.197 110.44 158.416 118.927L166.033 112.449C155.73 100.334 138.1 97.0726 124.064 105.027L128.994 113.727ZM159.759 111.338C149.928 116.91 137.556 114.625 130.337 106.138L122.72 112.617C133.024 124.731 150.653 127.993 164.69 120.038L159.759 111.338Z" fill="white"/>
</g>
<path fill-rule="evenodd" clip-rule="evenodd" d="M157.912 85.4951C152.759 98.2081 139.28 105.351 126.016 102.719C131.169 90.0064 144.648 82.8631 157.912 85.4951Z" fill="#073749"/>
<mask id="mask2_1_229" style="mask-type:luminance" maskUnits="userSpaceOnUse" x="118" y="70" width="48" height="49">
<path d="M165.525 70.1557H118.885V118.67H165.525V70.1557Z" fill="white"/>
<path fill-rule="evenodd" clip-rule="evenodd" d="M157.912 85.4951C152.759 98.2081 139.28 105.351 126.016 102.719C131.169 90.0064 144.648 82.8631 157.912 85.4951Z" fill="white"/>
</mask>
<g mask="url(#mask2_1_229)">
<path d="M157.912 85.4951L162.546 87.3733L164.818 81.768L158.885 80.5907L157.912 85.4951ZM126.016 102.719L121.382 100.841L119.11 106.447L125.043 107.624L126.016 102.719ZM153.278 83.6169C149.033 94.0901 137.918 99.9837 126.989 97.815L125.043 107.624C140.642 110.719 156.485 102.326 162.546 87.3733L153.278 83.6169ZM130.65 104.598C134.895 94.1245 146.01 88.2308 156.939 90.3995L158.885 80.5907C143.286 77.4953 127.443 85.8884 121.382 100.841L130.65 104.598Z" fill="white"/>
</g>
<path fill-rule="evenodd" clip-rule="evenodd" d="M109.259 104.803C77.4426 126.02 35.1726 121.342 8.73047 94.4692C40.5471 73.2516 82.8171 77.9305 109.259 104.803Z" fill="#073749"/>
<mask id="mask3_1_229" style="mask-type:luminance" maskUnits="userSpaceOnUse" x="0" y="41" width="118" height="117">
<path d="M117.753 41.5534H0.328178V157.992H117.753V41.5534Z" fill="white"/>
<path fill-rule="evenodd" clip-rule="evenodd" d="M109.259 104.803C77.4426 126.02 35.1726 121.342 8.73047 94.4692C40.5471 73.2516 82.8171 77.9305 109.259 104.803Z" fill="white"/>
</mask>
<g mask="url(#mask3_1_229)">
<path d="M109.259 104.803L112.033 108.963L117.065 105.607L112.823 101.296L109.259 104.803ZM8.73046 94.4692L5.95638 90.3094L0.924446 93.665L5.16652 97.9761L8.73046 94.4692ZM106.485 100.643C76.6793 120.52 37.0667 116.138 12.2944 90.9624L5.16652 97.9761C33.2785 126.545 78.2059 131.521 112.033 108.963L106.485 100.643ZM11.5046 98.6291C41.3104 78.7524 80.923 83.1344 105.695 108.31L112.823 101.296C84.7112 72.7266 39.7837 67.7509 5.95638 90.3094L11.5046 98.6291Z" fill="white"/>
</g>
<path fill-rule="evenodd" clip-rule="evenodd" d="M27.4922 18.9492C71.43 21.588 106.966 55.2527 112.557 98.2839C68.6189 95.6451 33.0833 61.9805 27.4922 18.9492Z" fill="#073749"/>
<mask id="mask4_1_229" style="mask-type:luminance" maskUnits="userSpaceOnUse" x="21" y="12" width="99" height="93">
<path d="M119.508 12.933H21.2622V104.198H119.508V12.933Z" fill="white"/>
<path fill-rule="evenodd" clip-rule="evenodd" d="M27.4922 18.9492C71.43 21.588 106.966 55.2527 112.557 98.2839C68.6189 95.6451 33.0833 61.9805 27.4922 18.9492Z" fill="white"/>
</mask>
<g mask="url(#mask4_1_229)">
<path d="M27.4922 18.9492L27.7919 13.9582L21.7546 13.5956L22.5339 19.5935L27.4922 18.9492ZM112.557 98.2839L112.257 103.275L118.294 103.638L117.515 97.6397L112.557 98.2839ZM27.1924 23.9402C68.7178 26.4342 102.314 58.2579 107.598 98.9282L117.515 97.6397C111.617 52.2475 74.1423 16.7419 27.7919 13.9582L27.1924 23.9402ZM112.856 93.2929C71.3312 90.799 37.7349 58.9753 32.4505 18.305L22.5339 19.5935C28.4317 64.9856 65.9067 100.491 112.257 103.275L112.856 93.2929Z" fill="white"/>
</g>
<path fill-rule="evenodd" clip-rule="evenodd" d="M119.255 96.4461C95.2422 72.8226 91.6822 35.5322 110.104 7.90283C134.116 31.5263 137.676 68.8167 119.255 96.4461Z" fill="#073749"/>
<mask id="mask5_1_229" style="mask-type:luminance" maskUnits="userSpaceOnUse" x="62" y="-1" width="107" height="106">
<path d="M168.191 -0.564301H62.075V104.998H168.191V-0.564301Z" fill="white"/>
<path fill-rule="evenodd" clip-rule="evenodd" d="M119.255 96.4461C95.2422 72.8226 91.6822 35.5322 110.104 7.90283C134.116 31.5263 137.676 68.8167 119.255 96.4461Z" fill="white"/>
</mask>
<g mask="url(#mask5_1_229)">
<path d="M119.255 96.4461L115.748 100.01L120.06 104.252L123.415 99.2197L119.255 96.4461ZM110.104 7.90281L113.61 4.33851L109.299 0.0968933L105.943 5.12912L110.104 7.90281ZM122.761 92.8818C100.472 70.9532 97.163 36.325 114.264 10.6765L105.943 5.12912C86.2013 34.7394 90.0128 74.6919 115.748 100.01L122.761 92.8818ZM106.597 11.4671C128.887 33.3956 132.195 68.0239 115.095 93.6724L123.415 99.2197C143.157 69.6095 139.346 29.657 113.61 4.33851L106.597 11.4671Z" fill="white"/>
</g>
<path fill-rule="evenodd" clip-rule="evenodd" d="M105.932 182.806C92.2721 159.776 97.105 130.394 116.87 112.899C130.53 135.929 125.697 165.31 105.932 182.806Z" fill="#073749"/>
<mask id="mask6_1_229" style="mask-type:luminance" maskUnits="userSpaceOnUse" x="68" y="104" width="87" height="88">
<path d="M154.075 104.535H68.5595V191.134H154.075V104.535Z" fill="white"/>
<path fill-rule="evenodd" clip-rule="evenodd" d="M105.932 182.806C92.2721 159.776 97.105 130.394 116.87 112.899C130.53 135.929 125.697 165.31 105.932 182.806Z" fill="white"/>
</mask>
<g mask="url(#mask6_1_229)">
<path d="M105.932 182.806L101.631 185.356L104.717 190.558L109.246 186.55L105.932 182.806ZM116.87 112.899L121.171 110.348L118.085 105.146L113.556 109.155L116.87 112.899ZM110.232 180.255C97.8055 159.304 102.202 132.56 120.184 116.643L113.556 109.155C92.0083 128.228 86.7387 160.248 101.631 185.356L110.232 180.255ZM112.57 115.45C124.996 136.401 120.6 163.144 102.618 179.062L109.246 186.55C130.794 167.476 136.063 135.457 121.171 110.348L112.57 115.45Z" fill="white"/>
</g>
<path fill-rule="evenodd" clip-rule="evenodd" d="M106.89 109.284C99.7345 119.512 86.3271 123.107 75.0977 118.075C82.2528 107.847 95.6601 104.252 106.89 109.284Z" fill="#228F87"/>
<mask id="mask7_1_229" style="mask-type:luminance" maskUnits="userSpaceOnUse" x="66" y="89" width="49" height="49">
<path d="M114.683 89.3968H66.8402V137.891H114.683V89.3968Z" fill="white"/>
<path fill-rule="evenodd" clip-rule="evenodd" d="M106.89 109.284C99.7345 119.512 86.3271 123.107 75.0977 118.075C82.2528 107.847 95.6601 104.252 106.89 109.284Z" fill="white"/>
</mask>
<g mask="url(#mask7_1_229)">
<path d="M106.89 109.284L110.987 112.15L114.454 107.194L108.934 104.721L106.89 109.284ZM75.0977 118.075L71.0007 115.209L67.5337 120.165L73.0531 122.638L75.0977 118.075ZM102.793 106.418C97.0229 114.665 86.199 117.57 77.1422 113.512L73.0531 122.638C86.4552 128.643 102.446 124.358 110.987 112.15L102.793 106.418ZM79.1946 120.941C84.9643 112.694 95.7883 109.789 104.845 113.847L108.934 104.721C95.532 98.716 79.5412 103.001 71.0007 115.209L79.1946 120.941Z" fill="white"/>
</g>
<path fill-rule="evenodd" clip-rule="evenodd" d="M110.179 113.67C110.744 123.369 104.291 132.033 95.0059 134.38C94.4407 124.681 100.894 116.016 110.179 113.67Z" fill="#34968A"/>
<mask id="mask8_1_229" style="mask-type:luminance" maskUnits="userSpaceOnUse" x="86" y="106" width="33" height="36">
<path d="M118.544 106.896H86.1652V141.031H118.544V106.896Z" fill="white"/>
<path fill-rule="evenodd" clip-rule="evenodd" d="M110.179 113.67C110.744 123.369 104.291 132.033 95.0059 134.38C94.4407 124.681 100.894 116.016 110.179 113.67Z" fill="white"/>
</mask>
<g mask="url(#mask8_1_229)">
<path d="M110.179 113.67L115.171 113.379L114.819 107.34L108.954 108.822L110.179 113.67ZM95.0059 134.38L90.0143 134.671L90.3662 140.709L96.2308 139.228L95.0059 134.38ZM105.188 113.961C105.612 121.247 100.758 127.769 93.7809 129.532L96.2308 139.228C107.824 136.298 115.877 125.49 115.171 113.379L105.188 113.961ZM99.9974 134.089C99.5728 126.803 104.427 120.281 111.404 118.517L108.954 108.822C97.3608 111.752 89.3086 122.559 90.0143 134.671L99.9974 134.089Z" fill="white"/>
</g>
<path fill-rule="evenodd" clip-rule="evenodd" d="M114.408 135.189C110.152 129.803 110.378 122.171 114.805 117.052C119.061 122.438 118.835 130.07 114.408 135.189Z" fill="#459D8D"/>
<mask id="mask9_1_229" style="mask-type:luminance" maskUnits="userSpaceOnUse" x="96" y="108" width="36" height="36">
<path d="M131.852 108.283H96.6433V143.66H131.852V108.283Z" fill="white"/>
<path fill-rule="evenodd" clip-rule="evenodd" d="M114.408 135.189C110.152 129.803 110.378 122.171 114.805 117.052C119.061 122.438 118.835 130.07 114.408 135.189Z" fill="white"/>
</mask>
<g mask="url(#mask9_1_229)">
<path d="M114.408 135.189L110.485 138.289L114.235 143.035L118.191 138.46L114.408 135.189ZM114.805 117.052L118.728 113.952L114.978 109.206L111.022 113.781L114.805 117.052ZM118.331 132.089C115.573 128.599 115.718 123.641 118.587 120.322L111.022 113.781C105.039 120.702 104.73 131.007 110.485 138.289L118.331 132.089ZM110.882 120.152C113.64 123.642 113.495 128.601 110.626 131.919L118.191 138.46C124.174 131.539 124.483 121.235 118.728 113.952L110.882 120.152Z" fill="white"/>
</g>
<path fill-rule="evenodd" clip-rule="evenodd" d="M122.813 100.442C121.254 73.3997 139.262 49.2531 165.156 42.7305C166.715 69.7725 148.707 93.9191 122.813 100.442Z" fill="#14787F"/>
<mask id="mask10_1_229" style="mask-type:luminance" maskUnits="userSpaceOnUse" x="109" y="36" width="69" height="72">
<path d="M177.878 36.0824H109.831V107.644H177.878V36.0824Z" fill="white"/>
<path fill-rule="evenodd" clip-rule="evenodd" d="M122.813 100.442C121.254 73.3997 139.262 49.2531 165.156 42.7305C166.715 69.7725 148.707 93.9191 122.813 100.442Z" fill="white"/>
</mask>
<g mask="url(#mask10_1_229)">
<path d="M122.813 100.442L117.821 100.729L118.169 106.768L124.034 105.29L122.813 100.442ZM165.156 42.7305L170.148 42.4427L169.8 36.4046L163.935 37.8819L165.156 42.7305ZM127.805 100.154C126.385 75.5248 142.792 53.52 166.378 47.579L163.935 37.8819C135.732 44.9861 116.123 71.2746 117.821 100.729L127.805 100.154ZM160.165 43.0183C161.584 67.6474 145.177 89.6521 121.592 95.5932L124.034 105.29C152.237 98.1861 171.846 71.8976 170.148 42.4427L160.165 43.0183Z" fill="white"/>
</g>
<path fill-rule="evenodd" clip-rule="evenodd" d="M210.229 99.334C187.72 120.906 153.124 123.185 128.064 105.391C150.573 83.8191 185.168 81.54 210.229 99.334Z" fill="#2F6C7E"/>
<mask id="mask11_1_229" style="mask-type:luminance" maskUnits="userSpaceOnUse" x="119" y="52" width="100" height="101">
<path d="M218.708 52.7091H119.198V152.474H218.708V52.7091Z" fill="white"/>
<path fill-rule="evenodd" clip-rule="evenodd" d="M210.229 99.334C187.72 120.906 153.124 123.185 128.064 105.391C150.573 83.8191 185.168 81.54 210.229 99.334Z" fill="white"/>
</mask>
<g mask="url(#mask11_1_229)">
<path d="M210.229 99.334L213.688 102.944L218.055 98.7588L213.123 95.2572L210.229 99.334ZM128.064 105.391L124.605 101.782L120.238 105.967L125.169 109.468L128.064 105.391ZM206.769 95.7242C186.005 115.624 154.078 117.73 130.959 101.315L125.169 109.468C152.171 128.641 189.435 126.188 213.688 102.944L206.769 95.7242ZM131.524 109.001C152.287 89.1012 184.215 86.9952 207.334 103.411L213.123 95.2572C186.122 76.0848 148.858 78.537 124.605 101.782L131.524 109.001Z" fill="white"/>
</g>
<path fill-rule="evenodd" clip-rule="evenodd" d="M98.8945 36.0718C118.434 49.7648 125.284 75.399 115.647 96.8555C96.1078 83.1624 89.2578 57.5283 98.8945 36.0718Z" fill="#008080"/>
<mask id="mask12_1_229" style="mask-type:luminance" maskUnits="userSpaceOnUse" x="68" y="27" width="79" height="79">
<path d="M146.273 27.8126H68.0125V105.1H146.273V27.8126Z" fill="white"/>
<path fill-rule="evenodd" clip-rule="evenodd" d="M98.8945 36.0718C118.434 49.7648 125.284 75.399 115.647 96.8555C96.1078 83.1624 89.2578 57.5283 98.8945 36.0718Z" fill="white"/>
</mask>
<g mask="url(#mask12_1_229)">
<path d="M98.8945 36.0718L101.764 31.9772L96.8113 28.5063L94.3334 34.0233L98.8945 36.0718ZM115.647 96.8555L112.778 100.95L117.73 104.421L120.208 98.904L115.647 96.8555ZM96.025 40.1664C113.585 52.4724 119.747 75.5224 111.086 94.807L120.208 98.904C130.82 75.2756 123.283 47.0573 101.764 31.9772L96.025 40.1664ZM118.517 92.7609C100.957 80.4549 94.7944 57.4049 103.456 38.1203L94.3334 34.0233C83.7213 57.6517 91.259 85.87 112.778 100.95L118.517 92.7609Z" fill="white"/>
</g>
<path fill-rule="evenodd" clip-rule="evenodd" d="M109.68 101.598C92.7136 107.162 74.2842 99.7709 65.7502 84.3756C82.7164 78.8107 101.146 86.2022 109.68 101.598Z" fill="#0E8683"/>
<mask id="mask13_1_229" style="mask-type:luminance" maskUnits="userSpaceOnUse" x="57" y="63" width="61" height="59">
<path d="M117.804 63.8025H57.9719V121.939H117.804V63.8025Z" fill="white"/>
<path fill-rule="evenodd" clip-rule="evenodd" d="M109.68 101.598C92.7136 107.162 74.2842 99.7709 65.7502 84.3756C82.7164 78.8107 101.146 86.2022 109.68 101.598Z" fill="white"/>
</mask>
<g mask="url(#mask13_1_229)">
<path d="M109.68 101.598L111.238 106.348L116.985 104.463L114.053 99.1734L109.68 101.598ZM65.7502 84.3756L64.1919 79.6246L58.4448 81.5096L61.3772 86.7996L65.7502 84.3756ZM108.121 96.8465C93.4517 101.658 77.503 95.2645 70.1233 81.9515L61.3772 86.7996C71.0653 104.277 91.9755 112.667 111.238 106.348L108.121 96.8465ZM67.3085 89.1265C81.9782 84.3149 97.927 90.7085 105.307 104.022L114.053 99.1734C104.365 81.6959 83.4545 73.3065 64.1919 79.6246L67.3085 89.1265Z" fill="white"/>
</g>
<path d="M135.88 139.5L160.32 45.5H751V139.5H135.88Z" fill="white" fill-opacity="0.5" stroke="white" stroke-width="6"/>
<path fill-rule="evenodd" clip-rule="evenodd" d="M123.361 113.921C140.438 118.274 151.871 134.192 150.822 151.533C133.745 147.181 122.313 131.263 123.361 113.921Z" fill="#073749"/>
<path fill-rule="evenodd" clip-rule="evenodd" d="M126.529 109.377C138.463 102.614 153.463 105.387 162.225 115.688C150.29 122.451 135.29 119.678 126.529 109.377Z" fill="#073749"/>
<path fill-rule="evenodd" clip-rule="evenodd" d="M157.912 85.4951C152.759 98.2081 139.28 105.351 126.016 102.719C131.169 90.0064 144.648 82.8631 157.912 85.4951Z" fill="#073749"/>
<path fill-rule="evenodd" clip-rule="evenodd" d="M109.259 104.803C77.4426 126.02 35.1726 121.342 8.73047 94.4692C40.5471 73.2516 82.8171 77.9305 109.259 104.803Z" fill="#073749"/>
<path fill-rule="evenodd" clip-rule="evenodd" d="M27.4922 18.9492C71.43 21.588 106.966 55.2527 112.557 98.2839C68.6189 95.6451 33.0833 61.9805 27.4922 18.9492Z" fill="#073749"/>
<path fill-rule="evenodd" clip-rule="evenodd" d="M119.255 96.4461C95.2422 72.8226 91.6822 35.5322 110.104 7.90283C134.116 31.5263 137.676 68.8167 119.255 96.4461Z" fill="#073749"/>
<path fill-rule="evenodd" clip-rule="evenodd" d="M105.932 182.806C92.2721 159.776 97.105 130.394 116.87 112.899C130.53 135.929 125.697 165.31 105.932 182.806Z" fill="#073749"/>
<path fill-rule="evenodd" clip-rule="evenodd" d="M106.89 109.284C99.7345 119.512 86.3271 123.107 75.0977 118.075C82.2528 107.847 95.6601 104.252 106.89 109.284Z" fill="#228F87"/>
<path fill-rule="evenodd" clip-rule="evenodd" d="M110.179 113.67C110.744 123.369 104.291 132.033 95.0059 134.38C94.4407 124.681 100.894 116.016 110.179 113.67Z" fill="#34968A"/>
<path fill-rule="evenodd" clip-rule="evenodd" d="M114.408 135.189C110.152 129.803 110.378 122.171 114.805 117.052C119.061 122.438 118.835 130.07 114.408 135.189Z" fill="#459D8D"/>
<path fill-rule="evenodd" clip-rule="evenodd" d="M122.813 100.442C121.254 73.3997 139.262 49.2531 165.156 42.7305C166.715 69.7725 148.707 93.9191 122.813 100.442Z" fill="#14787F"/>
<path fill-rule="evenodd" clip-rule="evenodd" d="M210.229 99.334C187.72 120.906 153.124 123.185 128.064 105.391C150.573 83.8191 185.168 81.54 210.229 99.334Z" fill="#2F6C7E"/>
<path fill-rule="evenodd" clip-rule="evenodd" d="M98.8945 36.0718C118.434 49.7648 125.284 75.399 115.647 96.8555C96.1078 83.1624 89.2578 57.5283 98.8945 36.0718Z" fill="#008080"/>
<path fill-rule="evenodd" clip-rule="evenodd" d="M109.68 101.598C92.7136 107.162 74.2842 99.7709 65.7502 84.3756C82.7164 78.8107 101.146 86.2022 109.68 101.598Z" fill="#0E8683"/>
<path d="M258.496 79.1852C257.757 78.348 256.895 77.6094 255.911 76.9692C254.926 76.2798 253.818 75.6889 252.587 75.1964C251.356 74.704 250.026 74.31 248.598 74.0146C247.219 73.7191 245.742 73.5714 244.166 73.5714C239.586 73.5714 236.213 74.4578 234.046 76.2306C231.929 77.9541 230.87 80.3178 230.87 83.3217C230.87 85.3899 231.363 87.0149 232.347 88.1968C233.382 89.3786 234.982 90.3389 237.149 91.0776C239.315 91.8162 242.073 92.5795 245.422 93.3674C249.164 94.1553 252.39 95.0909 255.098 96.1743C257.806 97.2576 259.899 98.735 261.377 100.606C262.854 102.428 263.593 104.915 263.593 108.067C263.593 110.48 263.125 112.572 262.189 114.345C261.254 116.118 259.949 117.595 258.274 118.777C256.6 119.959 254.606 120.845 252.291 121.436C249.977 121.978 247.441 122.249 244.683 122.249C241.975 122.249 239.365 121.978 236.853 121.436C234.391 120.845 232.052 120.008 229.836 118.925C227.62 117.792 225.552 116.364 223.631 114.641L226.217 110.43C227.152 111.415 228.26 112.351 229.541 113.237C230.87 114.074 232.323 114.838 233.899 115.527C235.524 116.216 237.247 116.758 239.069 117.152C240.94 117.497 242.861 117.669 244.831 117.669C249.016 117.669 252.267 116.906 254.581 115.379C256.945 113.853 258.127 111.588 258.127 108.584C258.127 106.417 257.536 104.693 256.354 103.413C255.172 102.084 253.399 101 251.035 100.163C248.672 99.3259 245.766 98.5134 242.319 97.7255C238.675 96.8883 235.598 95.9527 233.086 94.9186C230.575 93.8844 228.679 92.5302 227.398 90.856C226.167 89.1324 225.552 86.8672 225.552 84.0603C225.552 80.8102 226.34 78.0772 227.915 75.8612C229.541 73.596 231.757 71.8971 234.563 70.7645C237.37 69.5826 240.596 68.9917 244.24 68.9917C246.554 68.9917 248.696 69.2379 250.666 69.7304C252.685 70.1736 254.532 70.8384 256.206 71.7247C257.93 72.6111 259.53 73.7191 261.007 75.0487L258.496 79.1852ZM294.056 122.175C289.92 122.175 286.424 121.436 283.567 119.959C280.711 118.482 278.446 116.512 276.772 114.05C275.098 111.538 273.866 108.707 273.079 105.555C272.34 102.404 271.971 99.1535 271.971 95.805V69.361H277.067V95.805C277.067 98.5134 277.338 101.173 277.88 103.782C278.471 106.392 279.406 108.731 280.687 110.8C281.967 112.868 283.691 114.518 285.857 115.749C288.024 116.931 290.732 117.521 293.983 117.521C297.331 117.521 300.089 116.906 302.255 115.675C304.471 114.394 306.195 112.72 307.426 110.652C308.706 108.584 309.617 106.269 310.159 103.709C310.701 101.099 310.972 98.4641 310.972 95.805V69.361H316.142V95.805C316.142 99.3013 315.748 102.65 314.96 105.851C314.172 109.052 312.892 111.858 311.119 114.271C309.396 116.684 307.131 118.605 304.324 120.033C301.517 121.461 298.094 122.175 294.056 122.175ZM324.997 95.214C324.997 92.0132 325.539 88.8862 326.623 85.8331C327.755 82.7307 329.38 79.9238 331.498 77.4124C333.615 74.8517 336.225 72.8327 339.327 71.3554C342.43 69.8289 345.951 69.0656 349.89 69.0656C354.568 69.0656 358.557 70.1489 361.856 72.3157C365.205 74.4332 367.667 77.1662 369.243 80.5148L365.18 83.0262C364.048 80.7117 362.62 78.8897 360.896 77.5601C359.173 76.1813 357.326 75.1964 355.356 74.6055C353.436 74.0146 351.515 73.7191 349.595 73.7191C346.443 73.7191 343.661 74.3593 341.248 75.6396C338.835 76.8707 336.791 78.545 335.117 80.6625C333.492 82.7307 332.261 85.0698 331.424 87.6797C330.587 90.2404 330.168 92.8503 330.168 95.5095C330.168 98.4149 330.661 101.197 331.645 103.856C332.63 106.515 334.009 108.879 335.782 110.947C337.555 112.966 339.623 114.591 341.987 115.823C344.4 117.004 347.009 117.595 349.816 117.595C351.786 117.595 353.805 117.251 355.873 116.561C357.942 115.872 359.862 114.813 361.635 113.385C363.457 111.957 364.91 110.11 365.993 107.845L370.277 110.061C369.194 112.671 367.519 114.887 365.254 116.709C362.989 118.531 360.453 119.91 357.646 120.845C354.888 121.781 352.18 122.249 349.521 122.249C345.926 122.249 342.627 121.486 339.623 119.959C336.619 118.383 334.009 116.315 331.793 113.754C329.626 111.144 327.952 108.239 326.77 105.038C325.588 101.788 324.997 98.5134 324.997 95.214ZM375.059 95.214C375.059 92.0132 375.6 88.8862 376.684 85.8331C377.816 82.7307 379.441 79.9238 381.559 77.4124C383.676 74.8517 386.286 72.8327 389.389 71.3554C392.491 69.8289 396.012 69.0656 399.951 69.0656C404.63 69.0656 408.618 70.1489 411.918 72.3157C415.266 74.4332 417.728 77.1662 419.304 80.5148L415.242 83.0262C414.109 80.7117 412.681 78.8897 410.957 77.5601C409.234 76.1813 407.387 75.1964 405.418 74.6055C403.497 74.0146 401.577 73.7191 399.656 73.7191C396.504 73.7191 393.722 74.3593 391.309 75.6396C388.896 76.8707 386.853 78.545 385.178 80.6625C383.553 82.7307 382.322 85.0698 381.485 87.6797C380.648 90.2404 380.229 92.8503 380.229 95.5095C380.229 98.4149 380.722 101.197 381.707 103.856C382.692 106.515 384.07 108.879 385.843 110.947C387.616 112.966 389.684 114.591 392.048 115.823C394.461 117.004 397.071 117.595 399.878 117.595C401.847 117.595 403.866 117.251 405.935 116.561C408.003 115.872 409.923 114.813 411.696 113.385C413.518 111.957 414.971 110.11 416.054 107.845L420.338 110.061C419.255 112.671 417.581 114.887 415.316 116.709C413.05 118.531 410.514 119.91 407.707 120.845C404.95 121.781 402.241 122.249 399.582 122.249C395.987 122.249 392.688 121.486 389.684 119.959C386.68 118.383 384.07 116.315 381.854 113.754C379.688 111.144 378.013 108.239 376.832 105.038C375.65 101.788 375.059 98.5134 375.059 95.214ZM450.516 122.175C446.38 122.175 442.883 121.436 440.027 119.959C437.171 118.482 434.906 116.512 433.231 114.05C431.557 111.538 430.326 108.707 429.538 105.555C428.799 102.404 428.43 99.1535 428.43 95.805V69.361H433.527V95.805C433.527 98.5134 433.798 101.173 434.339 103.782C434.93 106.392 435.866 108.731 437.146 110.8C438.427 112.868 440.15 114.518 442.317 115.749C444.484 116.931 447.192 117.521 450.442 117.521C453.791 117.521 456.548 116.906 458.715 115.675C460.931 114.394 462.655 112.72 463.886 110.652C465.166 108.584 466.077 106.269 466.619 103.709C467.16 101.099 467.431 98.4641 467.431 95.805V69.361H472.602V95.805C472.602 99.3013 472.208 102.65 471.42 105.851C470.632 109.052 469.352 111.858 467.579 114.271C465.855 116.684 463.59 118.605 460.783 120.033C457.976 121.461 454.554 122.175 450.516 122.175ZM484.929 121.806V69.361H490.099V117.226H520.384V121.806H484.929ZM563.227 117.226V121.806H527.993V69.361H562.562V73.9407H533.164V92.8503H558.795V97.2084H533.164V117.226H563.227ZM578.175 78.8897V121.806H573.005V69.361H577.289L611.71 113.09V69.4349H616.881V121.806H612.08L578.175 78.8897ZM667.291 73.9407H648.603V121.806H643.433V73.9407H624.745V69.361H667.291V73.9407ZM705.801 79.1852C705.063 78.348 704.201 77.6094 703.216 76.9692C702.231 76.2798 701.123 75.6889 699.892 75.1964C698.661 74.704 697.332 74.31 695.903 74.0146C694.525 73.7191 693.047 73.5714 691.472 73.5714C686.892 73.5714 683.519 74.4578 681.352 76.2306C679.234 77.9541 678.176 80.3178 678.176 83.3217C678.176 85.3899 678.668 87.0149 679.653 88.1968C680.687 89.3786 682.288 90.3389 684.454 91.0776C686.621 91.8162 689.379 92.5795 692.727 93.3674C696.47 94.1553 699.695 95.0909 702.404 96.1743C705.112 97.2576 707.205 98.735 708.682 100.606C710.16 102.428 710.898 104.915 710.898 108.067C710.898 110.48 710.43 112.572 709.495 114.345C708.559 116.118 707.254 117.595 705.58 118.777C703.906 119.959 701.911 120.845 699.597 121.436C697.282 121.978 694.746 122.249 691.989 122.249C689.28 122.249 686.67 121.978 684.159 121.436C681.697 120.845 679.358 120.008 677.142 118.925C674.926 117.792 672.857 116.364 670.937 114.641L673.522 110.43C674.458 111.415 675.566 112.351 676.846 113.237C678.176 114.074 679.628 114.838 681.204 115.527C682.829 116.216 684.553 116.758 686.375 117.152C688.246 117.497 690.167 117.669 692.136 117.669C696.322 117.669 699.572 116.906 701.887 115.379C704.25 113.853 705.432 111.588 705.432 108.584C705.432 106.417 704.841 104.693 703.659 103.413C702.478 102.084 700.705 101 698.341 100.163C695.977 99.3259 693.072 98.5134 689.625 97.7255C685.981 96.8883 682.903 95.9527 680.392 94.9186C677.88 93.8844 675.984 92.5302 674.704 90.856C673.473 89.1324 672.857 86.8672 672.857 84.0603C672.857 80.8102 673.645 78.0772 675.221 75.8612C676.846 73.596 679.062 71.8971 681.869 70.7645C684.676 69.5826 687.901 68.9917 691.545 68.9917C693.86 68.9917 696.002 69.2379 697.972 69.7304C699.991 70.1736 701.837 70.8384 703.512 71.7247C705.235 72.6111 706.836 73.7191 708.313 75.0487L705.801 79.1852Z" fill="#073749"/>
<rect x="111" y="102.5" width="12" height="8" fill="white"/>
</g>
<defs>
<clipPath id="clip0_1_229">
<rect width="755" height="191" fill="white"/>
</clipPath>
</defs>
</svg>
